<?xml version="1.0" encoding="UTF-8" standalone="no"?>
<svg
   xmlns:dc="http://purl.org/dc/elements/1.1/"
   xmlns:cc="http://creativecommons.org/ns#"
   xmlns:rdf="http://www.w3.org/1999/02/22-rdf-syntax-ns#"
   xmlns:svg="http://www.w3.org/2000/svg"
   xmlns="http://www.w3.org/2000/svg"
   xmlns:sodipodi="http://sodipodi.sourceforge.net/DTD/sodipodi-0.dtd"
   xmlns:inkscape="http://www.inkscape.org/namespaces/inkscape"
   version="1.1"
   width="304.8mm"
   height="304.8mm"
   viewBox="0 0 304.8 304.8"
   id="svg6"
   sodipodi:docname="Off The Beaten Path SVG With Mountains and Background layer.svg"
   inkscape:version="1.0 (4035a4fb49, 2020-05-01)">
  <metadata
     id="metadata10">
    <rdf:RDF>
      <cc:Work
         rdf:about="">
        <dc:format>image/svg+xml</dc:format>
        <dc:type
           rdf:resource="http://purl.org/dc/dcmitype/StillImage" />
        <dc:title></dc:title>
      </cc:Work>
    </rdf:RDF>
  </metadata>
  <sodipodi:namedview
     inkscape:document-rotation="0"
     pagecolor="#ffffff"
     bordercolor="#666666"
     borderopacity="1"
     objecttolerance="10"
     gridtolerance="10"
     guidetolerance="10"
     inkscape:pageopacity="0"
     inkscape:pageshadow="2"
     inkscape:window-width="1920"
     inkscape:window-height="1001"
     id="namedview8"
     showgrid="false"
     inkscape:zoom="0.72048614"
     inkscape:cx="943.64909"
     inkscape:cy="511.00361"
     inkscape:window-x="-9"
     inkscape:window-y="-9"
     inkscape:window-maximized="1"
     inkscape:current-layer="svg6" />
  <defs
     id="defs2">
    <clipPath
       clipPathUnits="userSpaceOnUse"
       id="clipPath1475">
      <ellipse
         style="opacity:0.24;fill:#0000ff;stroke:#ffffff;stroke-width:0.0831812"
         id="ellipse1477"
         cx="172.36894"
         cy="132.40857"
         rx="71.201729"
         ry="80.584961"
         transform="matrix(0.99696951,0.07779328,-0.06136946,0.99811512,0,0)" />
    </clipPath>
  </defs>
  <ellipse
     style="opacity:1;fill:#7d5353;stroke:#ffffff;stroke-width:0.0695537;fill-opacity:1"
     id="path1467"
     cx="158.27565"
     cy="150.19662"
     rx="63.155052"
     ry="63.522285" />
  <g
     id="g1460"
     transform="matrix(0.88543576,-0.06133001,0.05444133,0.78598243,6.4882278,46.190815)"
     clip-path="url(#clipPath1475)">
    <path
       transform="matrix(1.0220543,0.04662683,-0.03759802,1.2674909,110.27312,-15.438046)"
       inkscape:transform-center-y="-24.102967"
       inkscape:transform-center-x="-0.21829521"
       d="m 151.94643,178.40475 -66.411627,2.813 -66.411627,2.81301 L 49.892858,125.1101 80.662532,66.189443 116.30448,122.2971 Z"
       inkscape:randomized="0"
       inkscape:rounded="0"
       inkscape:flatsided="false"
       sodipodi:arg2="1.5284645"
       sodipodi:arg1="0.48126693"
       sodipodi:r2="38.377148"
       sodipodi:r1="76.754303"
       sodipodi:cy="142.87498"
       sodipodi:cx="83.910713"
       sodipodi:sides="3"
       id="path1423-4"
       style="fill:#a10f35;fill-opacity:1;fill-rule:evenodd;stroke-width:0.264583"
       sodipodi:type="star" />
    <path
       sodipodi:type="star"
       style="fill:#cc0f35;fill-opacity:1;fill-rule:evenodd;stroke-width:0.264583"
       id="path1423"
       sodipodi:sides="3"
       sodipodi:cx="83.910713"
       sodipodi:cy="142.87498"
       sodipodi:r1="76.754303"
       sodipodi:r2="38.377148"
       sodipodi:arg1="0.48126693"
       sodipodi:arg2="1.5284645"
       inkscape:flatsided="false"
       inkscape:rounded="0"
       inkscape:randomized="0"
       d="m 151.94643,178.40475 -66.411627,2.813 -66.411627,2.81301 L 49.892858,125.1101 80.662532,66.189443 116.30448,122.2971 Z"
       inkscape:transform-center-x="-0.21344058"
       inkscape:transform-center-y="-19.003433"
       transform="rotate(2.1067735,-916.48457,1569.949)" />
  </g>
  <path
     id="path4"
     stroke-linejoin="round"
     stroke-linecap="round"
     stroke-width="0.1"
     stroke-opacity="1"
     stroke="#000000"
     fill-opacity="1"
     fill="#000000"
     d="m 47.485068,150.81443 -0.01775,0.0473 0.01707,-0.0638 z M 151.43712,21.471646 l 2.8568,9e-5 c 0.0952,10e-6 0.2229,-0.01171 0.3174,10e-6 0.0877,0.01088 0.2006,0.0477 0.2855,0.07193 0.0853,0.02434 0.1972,0.06297 0.2817,0.08995 l 9.5363,8.6149 v -5.67051 h -2.8097 v -3.10627 l 10.0182,-5e-5 v 3.10632 h -2.9151 v 13.61261 h -3.5389 l -11.3728,-10.21127 v 6.86089 l 2.9149,-3e-5 v 3.35041 l -10.018,-1.2e-4 1e-4,-3.35035 h 2.8094 v -10.26222 h -2.8094 l -1e-4,-3.10639 z m 87.4568,104.180384 c 0.1998,0.0514 0.335,0.0999 0.6787,0.11191 0.2087,0.007 0.5241,-0.004 1.0418,-0.0718 0.9552,-0.12581 1.4915,-0.28591 2.7271,-0.37441 0.1851,-0.0133 0.4323,-0.028 0.6178,-0.034 0.1988,-0.006 0.4642,-0.0109 0.6631,-0.006 0.3038,0.019 0.4933,0.0335 0.5688,0.0434 0.169,0.0222 0.2886,0.0383 0.5452,0.1605 l 0.0522,0.0698 -0.001,0.0795 c -0.0592,0.0578 -0.1322,0.1415 -0.1972,0.1927 -0.0651,0.0514 -0.1625,0.1052 -0.234,0.1471 l -0.5172,0.2822 c -0.7175,0.3915 -1.3691,0.656 -2.1165,0.9868 -0.401,0.1775 -2.41429,1.0634 -2.64869,1.2381 -0.0989,0.0801 -0.17651,0.1744 -0.23271,0.2828 -0.32709,0.6316 -0.0202,2.1524 0.2611,3.5469 1.1837,5.8679 1.2374,6.5412 2.07981,13.1388 0.46509,0.1801 0.93909,0.3277 1.42199,0.4428 0.29641,0.0706 0.79411,0.1712 1.4932,0.3018 2.6559,0.4254 4.05371,0.6491 4.1935,0.6711 7.97211,1.2604 15.9675,2.4006 19.9207,3.2111 0.33471,0.0685 0.669,0.1412 1.32781,0.3219 0.0767,0.0211 0.1807,0.0438 0.25529,0.0714 0.0721,0.0266 0.1625,0.0756 0.23221,0.1079 0.0653,0.1172 0.104,0.1971 0.1162,0.2397 0.0104,0.0359 0.021,0.1605 0.0246,0.2475 -0.0378,0.1009 -0.0698,0.1963 -0.1892,0.3053 -0.1244,0.1087 -0.2605,0.196 -0.4081,0.262 -0.3213,0.1436 -0.829,0.2096 -0.978,0.234 -0.7257,0.1137 -1.1077,0.1735 -1.1459,0.1794 -13.6863,2.1477 -21.7318,3.4422 -24.1362,3.8835 -0.5234,0.0908 -0.8499,0.1507 -0.9795,0.1797 -0.2893,0.0649 -0.5291,0.1584 -0.7994,0.2804 -0.3308,0.1493 -0.4845,0.1998 -0.5936,0.5459 -0.1312,0.4162 -0.1467,1.0377 -0.2057,1.7335 -0.0651,0.7674 -0.1394,1.7925 -0.2412,2.556 -0.1189,0.8926 -0.3581,2.0703 -0.5104,2.9578 -0.344,2.0046 -0.5772,3.1495 -0.8165,5.7535 0.2595,0.1008 3.9093,1.4849 5.146,2.123 0.2667,0.147 0.407,0.2243 0.421,0.2321 0.1748,0.0963 0.1867,0.1192 0.3159,0.244 l 0.0114,0.0842 -0.0272,0.0723 c -0.0829,0.0638 -0.1506,0.104 -0.2032,0.1204 -0.0637,0.0199 -0.3644,0.0602 -0.6645,0.0573 -0.078,-7.9e-4 -0.7809,-0.0334 -1.5522,-0.147 -0.3753,-0.0552 -1.1216,-0.1918 -2.2388,-0.4096 -0.6056,-0.1113 -1.0721,-0.1565 -1.3994,-0.1355 -0.2316,0.0148 -0.2649,0.0232 -0.4982,0.1329 -0.1742,0.2502 -0.1776,0.2509 -0.3069,0.527 -0.0703,0.15 -0.1584,0.3528 -0.2219,0.5059 -0.0864,0.2082 -0.3253,0.8412 -0.5211,1.4096 -0.2366,0.6868 -1.2201,3.8099 -2.459,6.8345 -0.1257,0.3068 -0.2965,0.7146 -0.4263,1.0197 -0.2608,0.6127 -0.6155,1.4266 -0.8819,2.0369 -0.2322,0.5321 -0.5487,1.2385 -0.7795,1.7712 -0.2533,0.5528 -0.4849,1.114 -0.6948,1.6836 -0.0194,0.0528 -0.3142,0.8479 -0.3411,1.0711 -0.0276,0.2291 0.007,0.4408 0.2718,0.7196 0.4871,0.5125 1.6288,1.1679 1.931,1.3513 0.9729,0.5908 2.7637,1.6694 3.2103,2.0221 0.2378,0.1879 0.3082,0.281 0.421,0.5257 -0.01,0.076 -0.0191,0.1083 -0.0531,0.2124 -0.0605,0.0704 -0.0702,0.076 -0.1484,0.1432 -0.0715,0.004 -0.1668,0.0157 -0.2384,0.0128 -0.045,-0.002 -0.1041,-0.0124 -0.1484,-0.02 -0.1531,-0.0336 -0.3048,-0.0726 -0.4549,-0.1171 -1.1366,-0.33689 -1.8584,-0.6721 -2.4678,-0.9217 -0.1125,-0.046 -1.681,-0.7157 -2.267,-0.8763 -0.4814,-0.1319 -0.9736,-0.15119 -1.4246,0.0627 -0.1286,0.061 -0.2782,0.1553 -0.4591,0.3366 -0.0467,0.0468 -0.4912,0.5386 -0.8451,1.0168 -0.3459,0.46719 -1.0079,1.423 -1.9861,2.8673 -0.1358,0.19529 -1.5147,2.1333 -2.7947,3.84879 -0.8177,1.09601 -1.6599,2.17351 -3.3525,4.3216 -0.6753,0.85701 -1.6908,2.14541 -2.1723,2.91671 -0.0794,0.1286 -0.131,0.20749 -0.1551,0.2365 -0.0565,0.0579 -0.0938,0.1016 -0.1119,0.1309 -0.0198,0.0322 -0.0378,0.0797 -0.0541,0.1139 0.0327,0.066 0.0717,0.15639 0.109,0.21989 0.0372,0.0634 0.0955,0.1427 0.1388,0.2023 0.1007,0.1386 0.2434,0.31711 0.3477,0.45301 0.4208,0.5482 0.5307,0.682 1.0882,1.3419 0.2565,0.3037 0.6017,0.7059 0.862,1.0062 1.7525,2.02139 8.0579,8.94439 8.9391,9.95069 0.4573,0.52241 2.2847,2.6309 2.8811,3.6224 0.0604,0.10031 0.2044,0.36271 0.2372,0.5353 0.0123,0.0644 0.01,0.12201 -0.0109,0.21811 -0.0171,0.0165 -0.0387,0.0399 -0.057,0.0552 -0.0148,0.0122 -0.0365,0.0259 -0.0521,0.037 -0.1739,0.0145 -0.2305,0.0137 -0.4297,-0.0752 -0.1959,-0.0876 -0.5174,-0.28769 -0.9079,-0.57149 -1.5098,-1.097 -3.3338,-2.80291 -4.7167,-4.05621 -0.4761,-0.4314 -7.117,-6.50029 -9.5604,-8.58599 -0.442,-0.3771 -0.7611,-0.6429 -1.2821,-1.05441 -0.2693,-0.21259 -0.3261,-0.254 -0.5643,-0.39039 -0.2037,0.0836 -0.2581,0.1025 -0.4908,0.2495 -0.209,0.1319 -0.4811,0.31819 -0.6814,0.46289 -0.4629,0.33431 -1.1288,0.8742 -2.2326,1.77911 -0.5597,0.45889 -2.0348,1.70559 -3.7594,3.0252 -0.7998,0.612 -1.8442,1.3778 -2.3069,1.71999 -1.1551,0.8544 -1.6777,1.22621 -2.521,1.95941 -0.3802,0.3353 -0.6406,0.5854 -0.7811,0.75019 -0.0443,0.052 -0.1066,0.11971 -0.1406,0.17891 -0.0205,0.0357 -0.0354,0.0892 -0.0505,0.1275 0.0389,0.13749 0.0836,0.323 0.1295,0.4583 0.0565,0.16669 0.1502,0.3823 0.2166,0.54519 0.146,0.35841 0.343,0.83521 0.4972,1.19021 0.1946,0.44809 0.6041,1.33529 1.2284,2.66139 0.046,0.1016 0.6019,1.3222 0.8432,2.06451 0.037,0.11399 0.0887,0.2661 0.1112,0.3839 0.0228,0.1193 0.0269,0.282 0.0384,0.4029 l -0.0616,0.18199 -0.0725,0.0572 c -0.0948,0.005 -0.2742,0.0453 -0.4653,-0.0959 -0.0495,-0.0365 -0.1519,-0.1384 -0.2883,-0.2913 -0.5253,-0.5884 -0.7247,-0.8639 -1.4006,-1.76541 -1.3551,-1.83839 -2.16,-2.9137 -2.4147,-3.22609 -0.0291,-0.0356 -0.5671,-0.66561 -0.5989,-0.6989 -0.0314,-0.0329 -0.165,-0.1569 -0.3403,-0.3016 -0.0648,0.008 -0.219,0.02 -0.4272,0.0832 -0.1025,0.0311 -0.2363,0.0809 -0.3369,0.1176 -0.5872,0.21429 -1.745,0.68909 -2.8805,1.2116 -0.3672,0.169 -4.3708,2.109 -7.3534,3.3577 -1.5784,0.6608 -3.183,1.2575 -4.5561,1.77279 -0.232,0.087 -0.7112,0.23911 -0.9156,0.37911 -0.2089,0.1429 -0.3672,0.36139 -0.4071,0.73899 -0.0149,0.1411 -0.021,0.47641 0.0444,0.9446 0.0642,0.4591 0.2231,1.1372 0.3072,1.5142 0.2978,1.1196 0.4596,2.14761 0.4855,3.0837 0.001,0.0424 0.004,0.59621 -0.0355,0.84761 -0.0305,0.1946 -0.0463,0.194 -0.1331,0.3708 l -0.07,0.0482 -0.0825,-0.002 c -0.0363,-0.0373 -0.0882,-0.0839 -0.1212,-0.1242 -0.0353,-0.0433 -0.0755,-0.1064 -0.1045,-0.1541 -0.03,-0.0494 -0.0643,-0.1186 -0.0918,-0.1695 -0.099,-0.1802 -0.1603,-0.2932 -0.1838,-0.3388 -0.5299,-1.0264 -1.2809,-2.9072 -2.2679,-5.3113 -0.7629,0.004 -1.9213,-0.0386 -3.8067,0.2508 -1.4062,0.2158 -3.8343,0.7942 -7.0028,1.2497 -3.3067,0.4067 -5.2369,0.7059 -5.7907,0.8975 -0.2124,0.0735 -0.3394,0.2722 -0.4714,0.5825 -0.2636,0.6198 -0.5167,1.7134 -0.7592,3.2809 -1.6601,10.5208 -2.5344,16.058 -2.6232,16.6115 -0.3269,2.0373 -1.116,6.9312 -1.4298,8.1288 -0.0759,0.2835 -0.1277,0.4592 -0.1553,0.527 -0.0759,0.187 -0.1381,0.2477 -0.2131,0.3428 l -0.1099,0.054 c -0.2345,0.0358 -0.4527,0.0105 -0.6547,-0.076 -0.1654,-0.0708 -0.1841,-0.1286 -0.2935,-0.2715 -1.2317,-7.1047 -2.3312,-14.2319 -3.2833,-20.3388 -0.44,-2.8221 -0.9031,-6.0619 -1.4109,-8.0378 -0.0541,-0.2103 -0.1204,-0.5403 -0.4575,-0.7382 -0.146,-0.0857 -0.3734,-0.1681 -0.6375,-0.2285 -0.3262,-0.0746 -0.5217,-0.0762 -0.9517,-0.0928 -0.1467,-0.006 -0.3427,-0.005 -0.4892,-0.0141 -0.4262,-0.0259 -0.9923,-0.0892 -1.4171,-0.1315 -0.3481,-0.0345 -0.812,-0.082 -1.1594,-0.1227 -1.0081,-0.1183 -2.3868,-0.3398 -2.5123,-0.3586 -1.3063,-0.1968 -2.8332,-0.4073 -4.3556,-0.6478 -0.2911,-0.0459 -0.7272,-0.1187 -1.4574,-0.2172 -0.2568,0.8004 -0.8141,2.6832 -1.7678,5.3182 -0.0159,0.0442 -0.2137,0.6245 -0.3378,0.8781 -0.0669,0.1366 -0.1764,0.308 -0.2519,0.4399 l -0.0309,0.0174 -0.1267,-0.0304 -0.1168,-0.0782 c -0.0781,-0.1416 -0.1248,-0.2458 -0.1401,-0.3127 -0.0259,-0.1138 -0.0547,-0.5036 -0.0617,-0.7758 -0.0166,-0.6545 0.0533,-1.2152 0.113,-1.8672 l 0.2255,-2.4379 c 0.004,-0.0471 0.051,-0.8493 0.0535,-0.9438 0.0103,-0.3865 -0.006,-0.4646 -0.035,-0.7726 -0.008,-0.008 -0.0907,-0.0971 -0.1825,-0.1519 -0.0811,-0.0483 -0.1952,-0.1026 -0.2821,-0.1395 l -1.0356,-0.3697 c -1.657,-0.5916 -3.6304,-1.1666 -5.5592,-1.8692 -2.7613,-1.0058 -5.4068,-2.305 -7.7371,-3.2613 -0.5496,-0.2256 -0.6773,-0.2625 -1.2395,-0.4544 -0.44361,-0.1514 -0.4447,-0.1606 -0.9073,-0.236 -0.17181,0.0944 -0.1979,0.0987 -0.3626,0.2411 -0.0631,0.0546 -0.144,0.1312 -0.2039,0.1893 -0.5163,0.5005 -0.9997,1.0326 -1.4503,1.5967 -0.352,0.4227 -1.6028,2.0081 -2.3521,2.8138 -0.2447,0.2633 -0.3736,0.4019 -0.3865,0.4157 -0.0149,0.0158 -0.1421,0.1812 -0.3408,0.268 -0.0545,0.0239 -0.188,0.0463 -0.2906,0.0638 l -0.079,-0.0349 -0.0514,-0.0719 c -0.007,-0.0875 -0.0356,-0.2464 0.009,-0.4388 0.053,-0.1796 0.1003,-0.3281 0.1421,-0.4456 0.3912,-1.1004 0.9094,-1.9386 1.6794,-3.5121 0.0519,-0.106 0.7369,-1.4961 0.8877,-2.1883 0.0392,-0.126 0.0388,-0.2453 -7.9e-4,-0.3576 -0.0154,-0.0436 -0.0652,-0.1423 -0.1633,-0.2609 -0.0648,-0.0784 -0.3532,-0.3708 -0.7591,-0.6776 -0.4539,-0.3431 -1.177,-0.7993 -1.5782,-1.0521 -0.4814,-0.3034 -1.1411,-0.6798 -1.6177,-0.9907 -0.4254,-0.2775 -0.976,-0.6721 -1.3909,-0.965 -0.6633,-0.4681 -1.542,-1.1005 -2.1983,-1.5783 -0.8902,-0.6524 -1.6264,-1.2034 -2.2088,-1.6528 -1.2984,-1.002 -1.6176,-1.2612 -3.173,-2.5966 -0.2593,-0.2226 -0.6016,-0.5234 -0.8637,-0.7426 -0.229,-0.1914 -0.541,-0.4384 -0.772,-0.6274 -0.1737,-0.1421 -0.4096,-0.3523 -0.7081,-0.5518 -0.1076,-0.072 -0.2541,-0.1641 -0.3689,-0.2239 -0.0647,-0.0337 -0.186,-0.0764 -0.3427,-0.1258 -0.0715,0.0221 -0.1688,0.0457 -0.2381,0.0738 -0.0744,0.0302 -0.1689,0.0815 -0.2387,0.1212 -0.2438,0.1514 -0.4799,0.3137 -0.7081,0.4866 -0.3764,0.2852 -0.930213,0.8017 -1.416802,1.2492 -1.64351,1.5115 -2.50852,2.307 -2.59501,2.3866 -0.461661,0.4245 -6.918661,6.3775 -9.298681,8.4197 -0.10728,0.092 -1.497168,1.3078 -2.222468,1.7476 -0.21985,0.131 -0.382191,0.2103 -0.48705,0.2378 -0.06604,0.0173 -0.15798,0.0207 -0.22565,0.0296 l -0.10532,-0.0355 -0.04722,-0.0504 c -0.0056,-0.0468 -0.02786,-0.1925 0.0042,-0.3139 0.02199,-0.0831 0.16488,-0.4455 0.346691,-0.7872 0.238448,-0.4481 0.849778,-1.4786 1.938618,-2.7739 1.529601,-1.8196 7.568441,-8.3792 7.967332,-8.8198 1.72258,-1.8987 2.935618,-3.2699 3.63909,-4.1135 0.13408,-0.1608 0.315759,-0.3732 0.440899,-0.541 0.07356,-0.0987 0.161509,-0.2374 0.230769,-0.3392 -0.0542,-0.1607 -0.07709,-0.2596 -0.19209,-0.4449 -0.147778,-0.2381 -0.659839,-0.8358 -0.695489,-0.879 -2.27149,-2.7362 -3.68309,-4.4528 -4.234849,-5.1499 -1.183582,-1.5104 -2.075212,-2.686 -2.674822,-3.527 -0.305408,-0.452 -0.565859,-0.8244 -0.78133,-1.1173 -0.10645,-0.1447 -0.25567,-0.3321 -0.362029,-0.4769 -0.332301,-0.487 -0.612659,-0.8389 -0.841119,-1.0557 -0.07525,-0.0714 -0.29796,-0.2253 -0.33207,-0.2489 -0.024,-2.7e-4 -0.244981,-0.0174 -0.479052,0.0368 -0.348769,0.0962 -0.532239,0.1471 -0.550479,0.1526 -0.975069,0.2967 -1.673921,0.6166 -2.382721,0.9028 -0.422939,0.1664 -0.645528,0.2541 -0.667819,0.2628 -0.604459,0.238 -1.7135,0.6497 -2.48547,0.758 l -0.378319,0.0352 c -0.02862,-5.3e-4 -0.169331,-0.03 -0.280271,-0.0584 l -0.06214,-0.059 -0.02109,-0.0806 c 0.219609,-0.3125 0.390909,-0.4201 0.536048,-0.5443 0.308182,-0.2635 0.680731,-0.5773 1.258922,-1.0227 0.883058,-0.6802 1.959499,-1.419 2.93211,-2.2823 0.01622,-0.0144 0.174609,-0.1623 0.475168,-0.4438 0.0987,-0.1069 0.166881,-0.1852 0.204581,-0.2347 0.09822,-0.1291 0.102111,-0.1508 0.17127,-0.3173 -0.01005,-0.1705 0.0032,-0.2588 -0.108259,-0.4758 -0.02625,-0.0511 -0.06796,-0.1158 -0.09375,-0.1671 -0.02447,-0.0486 -0.05165,-0.1161 -0.07411,-0.1657 -0.02365,-0.0523 -0.05571,-0.1218 -0.07955,-0.1741 -0.253109,-0.5577 -0.412218,-0.9059 -0.477298,-1.0446 -0.92992,-1.9801 -2.95185,-5.8756 -4.523661,-9.9588 -0.03936,-0.1022 -0.42188,-1.129 -1.14755,-3.0801 -0.229701,-0.5877 -0.447509,-0.8752 -0.7179,-1.0378 -0.20434,-0.1228 -0.49653,-0.2158 -0.92547,-0.2307 -0.212511,-0.007 -0.586211,0.0119 -1.06059,0.074 -0.208031,0.0272 -1.761461,0.28 -2.07409,0.3161 -0.09524,0.011 -0.95668,0.1203 -1.915149,0.096 -0.383371,-0.0173 -0.654532,-0.0452 -0.813422,-0.084 -0.06294,-0.0153 -0.183158,-0.0656 -0.30076,-0.1199 l -0.05207,-0.0698 0.0011,-0.0793 c 0.057,-0.0556 0.12772,-0.1358 0.190072,-0.1853 0.06725,-0.0534 0.167589,-0.1101 0.241099,-0.1545 0.03782,-0.0229 0.696981,-0.3834 0.77579,-0.4235 0.625271,-0.3176 2.877701,-1.2957 3.196931,-1.4408 0.539448,-0.2398 0.91994,-0.4206 1.141468,-0.54221 0.0141,-0.008 0.15159,-0.0695 0.261972,-0.18639 0.03719,-0.0394 0.135149,-0.1546 0.187838,-0.3084 0.14909,-0.435 0.09183,-1 0.0272,-1.5326 -0.06839,-0.56341 -0.1792,-1.1212 -0.330401,-1.8627 -1.199729,-5.8834 -1.325549,-7.223 -2.086459,-13.1791 -0.513271,-0.1917 -0.98724,-0.3393 -1.421892,-0.4425 -0.07411,-0.0176 -1.418468,-0.2886 -1.493459,-0.3019 l -4.418349,-0.7061 c -0.84782,-0.1339 -13.57404,-2.0898 -16.958201,-2.6692 -1.097661,-0.1892 -2.010159,-0.3583 -2.737509,-0.5072 -0.535432,-0.1096 -0.734962,-0.1591 -1.32779,-0.322 -0.07671,-0.0211 -0.180772,-0.044 -0.255392,-0.0715 -0.07205,-0.0266 -0.16251,-0.0757 -0.232159,-0.1081 -0.06765,-0.1256 -0.106391,-0.2055 -0.11621,-0.2396 -0.0069,-0.0239 -0.01982,-0.1358 -0.02447,-0.2477 0.03783,-0.10081 0.07033,-0.1957 0.18919,-0.3051 0.01783,-0.0165 0.186971,-0.1627 0.408281,-0.262 0.229331,-0.1028 0.630989,-0.1742 0.9778,-0.2337 0.779219,-0.122 1.237588,-0.1938 1.375111,-0.2153 3.630348,-0.56861 20.573889,-3.217 24.18796,-3.8813 0.303019,-0.0557 1.072208,-0.1756 1.500158,-0.3501 0.105542,-0.043 0.341881,-0.11501 0.492871,-0.2857 0.1504,-0.17 0.162661,-0.2763 0.20992,-0.5272 l 0.235599,-1.5429 c 0.398811,-2.6451 0.739751,-5.0527 1.022821,-7.2228 0.05791,-0.444 0.13929,-1.0357 0.186171,-1.481 0.08081,-0.7676 0.152429,-1.79451 0.217718,-2.5636 -1.744128,-0.6597 -3.48737,-1.3319 -4.930079,-2.0198 -0.379281,-0.1831 -0.62669,-0.3142 -0.742249,-0.3932 -0.0232,-0.0159 -0.11103,-0.0869 -0.21077,-0.1859 l -0.0113,-0.0846 0.02717,-0.072 c 0.09973,-0.0837 0.166183,-0.1148 0.293931,-0.13981 0.14215,-0.0181 0.237091,-0.0282 0.28475,-0.0306 0.45874,-0.0234 1.154531,0.0213 2.28691,0.2122 1.253771,0.2114 1.940661,0.4146 2.786722,0.4664 0.266708,0.0148 0.470278,0.01 0.610679,-0.0146 0.07735,-0.0135 0.16551,-0.052 0.293439,-0.1121 0.16995,-0.2533 0.177451,-0.2511 0.306962,-0.5273 0.07031,-0.15 0.158329,-0.3527 0.221829,-0.5057 0.202261,-0.5129 0.37596,-0.9828 0.521081,-1.4096 0.700497,-2.1729 1.390708,-4.1285 2.0706,-5.8666 0.830159,-2.1223 2.702078,-6.2802 2.98327,-6.9858 0.233608,-0.6393 0.385389,-1.0668 0.455318,-1.2826 0.01008,-0.0311 0.14886,-0.3805 0.03855,-0.6538 -0.07404,-0.1834 -0.214659,-0.3405 -0.413999,-0.5131 -0.13585,-0.1177 -0.464039,-0.382 -0.966821,-0.7077 -0.1851,-0.1199 -3.026829,-1.8172 -3.750901,-2.3212 -0.242667,-0.1598 -0.422529,-0.3144 -0.539559,-0.4637 -0.02527,-0.0322 -0.07102,-0.1171 -0.12791,-0.2412 0.02093,-0.2032 0.04541,-0.2235 0.20134,-0.3555 0.267311,-0.008 0.298781,-0.0152 0.533522,0.0381 0.09358,0.0213 0.216148,0.0588 0.308149,0.0862 0.57005,0.1696 0.850599,0.2716 1.404189,0.489 0.473641,0.1861 2.505382,1.0492 3.151992,1.2548 0.312877,0.0996 0.801658,0.2356 1.309428,0.1009 0.20071,-0.0532 0.51167,-0.1782 0.89158,-0.532 0.68821,-0.641 1.998191,-2.6169 2.802691,-3.7757 1.405909,-2.0749 2.879569,-4.0987 4.420971,-6.071347 1.414708,-1.81053 2.578859,-3.09278 3.546419,-4.518792 0.21717,-0.330229 0.349901,-0.538459 0.398129,-0.624639 0.05013,-0.08957 0.09869,-0.20348 0.165151,-0.375891 -0.07738,-0.153017 -0.104875,-0.223658 -0.247953,-0.422289 -0.100172,-0.139009 -0.242682,-0.317728 -0.347782,-0.453049 -0.37093,-0.477509 -0.528309,-0.684019 -1.08803,-1.34194 -0.339598,-0.399209 -0.795478,-0.928841 -1.139989,-1.323819 -1.703009,-1.952522 -7.381899,-8.170492 -8.661191,-9.633101 -1.218859,-1.393531 -2.4013,-2.83074 -2.881249,-3.622291 -0.12954,-0.22334 -0.2086,-0.401809 -0.237191,-0.535419 -0.01598,-0.07473 -0.0049,-0.13218 0.01098,-0.218069 l 0.109122,-0.09209 c 0.11544,-0.0127 0.216458,-0.0048 0.303099,0.02376 0.111381,0.04324 0.219101,0.09367 0.323151,0.151252 0.18297,0.101251 0.59259,0.370729 1.14132,0.8006 0.460201,0.360511 1.366981,1.099929 2.24246,1.874869 l 2.55532,2.315599 c 3.760689,3.407902 9.634351,8.852562 10.895851,9.567633 0.2282,-0.09647 0.2568,-0.104402 0.4907,-0.24951 0.1001,-0.0621 0.2324,-0.146881 0.3295,-0.21358 0.5619,-0.386011 1.1058,-0.93622 1.2946,-1.108541 1.9706,-1.7981 5.0196,-4.097411 5.9368,-4.779901 0.8837,-0.657569 1.7824,-1.29457 2.696,-1.91103 0.1908,-0.13258 0.6428,-0.43551 1.2355,-0.93377 0.3371,-0.27989 0.6004,-0.529889 0.7899,-0.75006 0.0446,-0.05177 0.1066,-0.119869 0.1406,-0.179109 0.0205,-0.0356 0.0354,-0.08912 0.0505,-0.127321 -0.0389,-0.137519 -0.0837,-0.32308 -0.1296,-0.45843 -0.0564,-0.166619 -0.1501,-0.3821 -0.2165,-0.54502 -0.146,-0.358339 -0.3429,-0.835269 -0.4974,-1.190099 -0.177,-0.406961 -1.1774,-2.552261 -1.2383,-2.687071 -0.3854,-0.842248 -0.6561,-1.499629 -0.8122,-1.97218 -0.0659,-0.199359 -0.1269,-0.333151 -0.1589,-0.681631 -0.005,-0.05147 -0.008,-0.120348 -0.0117,-0.171918 l 0.0615,-0.18202 0.0726,-0.05712 c 0.124,-0.0076 0.2882,-0.04134 0.48431,0.111231 0.15159,0.117959 0.65959,0.701558 1.2421,1.465199 0.43199,0.566161 2.24229,3.0666 2.84269,3.80211 0.0194,0.02379 0.21901,0.256791 0.59871,0.699061 0.0626,0.06598 0.19999,0.185888 0.3403,0.301591 0.0602,-0.0074 0.14109,-0.01326 0.20059,-0.02455 0.069,-0.0131 0.15951,-0.03831 0.2267,-0.0587 0.1591,-0.04825 0.36751,-0.124421 0.52331,-0.182481 0.1066,-0.03973 1.2764,-0.489339 2.0959,-0.885169 0.77549,-0.37457 4.94849,-2.643169 7.7495,-3.75666 1.7697,-0.703519 3.3852,-1.13725 4.50239,-1.547849 l 0.80871,-0.297252 c 0.2286,-0.08402 0.57709,-0.191399 0.71869,-0.657378 0.17021,-0.559922 -0.0123,-1.416651 -0.21409,-2.330971 -0.1705,-0.772859 -0.45171,-1.696159 -0.55221,-3.11721 -0.0381,-0.42486 -0.0345,-0.808379 0.011,-1.150559 0.009,-0.06559 0.0203,-0.153911 0.0412,-0.216691 0.0208,-0.06239 0.0676,-0.13774 0.0966,-0.196771 l 0.0702,-0.04832 0.0824,0.0024 c 0.0381,0.03813 0.0931,0.08521 0.127,0.127072 0.0341,0.04203 0.0709,0.104619 0.0986,0.151098 0.0296,0.04968 0.0644,0.118599 0.0919,0.169439 0.0997,0.179911 0.161,0.292891 0.1839,0.338921 0.3775,0.75905 1.4353,3.53441 1.5973,3.92608 0.0202,0.04893 0.3441,0.831861 0.4048,0.978649 0.098,0.23686 0.1253,0.348131 0.3166,0.660382 0.1196,0.06579 0.1761,0.08456 0.3296,0.08851 0.0535,0.0013 0.5375,-0.01506 1.064,-0.108472 0.7197,-0.127679 2.6205,-0.56471 4.7777,-0.958199 1.5763,-0.303371 3.1583,-0.56982 4.7461,-0.799369 0.2132,-0.0308 3.4157,-0.455121 4.2651,-0.598202 0.0407,-0.0069 0.7717,-0.13888 0.8123,-0.146389 0.3044,-0.0563 0.3448,-0.05099 0.6648,-0.17731 0.0399,-0.03678 0.0978,-0.0812 0.133,-0.122571 0.0409,-0.04819 0.0847,-0.121089 0.1159,-0.17612 0.0365,-0.06437 0.0777,-0.15425 0.107,-0.222171 0.0892,-0.206428 0.2108,-0.583009 0.3319,-1.074279 0.4812,-1.951559 1.958,-11.89999 2.166,-13.223741 1.1988,-7.589739 1.9415,-12.047129 2.228,-13.372159 0.0852,-0.39394 0.1676,-0.69132 0.2471,-0.89216 0.0744,-0.18771 0.0865,-0.18572 0.213,-0.34303 l 0.11,-0.05394 c 0.0329,-0.0018 0.3516,-0.05333 0.6546,0.07626 0.1654,0.07074 0.1842,0.12853 0.2936,0.27137 1.5524,9.036481 2.1435,13.069411 3.2474,20.1148 0.198,1.26365 0.9933,6.763411 1.4815,8.397481 0.0774,0.259051 0.1728,0.507079 0.5875,0.68336 0.4342,0.184539 0.8027,0.209579 1.1554,0.2363 0.3757,0.02661 0.5966,0.04335 0.6628,0.05019 0.3983,0.04126 0.9266,0.119801 1.3233,0.174191 1.7104,0.2344 3.2267,0.471551 3.7957,0.55738 1.2601,0.195299 2.3121,0.34223 3.1562,0.440811 0.4076,0.0476 2.1773,0.220919 2.7218,0.27336 0.1717,-0.535001 0.8136,-2.69113 1.7724,-5.33173 0.244,-0.671999 0.2522,-0.754081 0.5854,-1.30456 l 0.0307,-0.01722 c 0.1308,0.02566 0.1488,0.03483 0.2435,0.108389 0.0178,0.03177 0.0428,0.07346 0.0593,0.105921 0.0145,0.02854 0.0328,0.06717 0.0445,0.09695 0.0127,0.03233 0.0286,0.07608 0.0363,0.109961 0.0172,0.07591 0.0518,0.386821 0.0616,0.77587 -7.9e-4,0.39039 -0.005,0.650509 -0.0135,0.780319 -0.0498,0.543409 -0.0829,0.905651 -0.0995,1.086782 l -0.2254,2.43795 c -0.0323,0.50319 -0.0501,0.817779 -0.0534,0.943779 -0.0103,0.386548 0.01,0.503089 0.0348,0.772599 0.0252,0.02522 0.0818,0.08928 0.1828,0.151921 0.073,0.04531 0.1732,0.10118 0.2501,0.13947 0.1502,0.07474 0.5362,0.239041 1.1578,0.492908 0.6308,0.241761 3.853,1.265381 6.3704,2.247091 0.7763,0.302731 6.5522,2.694681 7.735,3.098432 l 0.6797,0.231979 c 0.1945,0.05842 0.396,0.09136 0.5676,0.11997 0.1325,-0.0751 0.1968,-0.09979 0.3624,-0.241001 0.0635,-0.05416 0.144,-0.131159 0.2039,-0.189328 0.4168,-0.425051 0.6913,-0.711491 0.8236,-0.859351 0.1812,-0.202491 0.4116,-0.482261 0.5855,-0.69097 0.5969,-0.716179 1.7583,-2.17738 2.3934,-2.86 0.2318,-0.249449 0.3607,-0.38799 0.3866,-0.41561 0.1073,-0.125619 0.2199,-0.21485 0.3379,-0.26769 0.0686,-0.03069 0.2639,-0.05943 0.2935,-0.06447 l 0.079,0.03497 0.0513,0.07204 c 0.0203,0.247049 0.0304,0.32041 -0.0601,0.616741 -0.1035,0.307919 -0.1818,0.52623 -0.2347,0.654899 -0.5381,1.308129 -1.4038,2.72763 -2.0476,4.247079 -0.2176,0.513752 -0.4262,1.05964 -0.3974,1.337122 0.0195,0.187219 0.196,0.453358 0.5492,0.764349 0.3514,0.30947 0.9214,0.72498 1.8941,1.376479 1.4934,0.972931 2.3706,1.547061 2.6317,1.722372 0.6014,0.403719 3.0174,2.014529 5.8497,4.271639 1.7151,1.366801 3.1273,2.6772 4.2486,3.465529 0.2739,0.190582 0.4909,0.325932 0.651,0.40605 0.0489,0.02453 0.1688,0.07056 0.3427,0.125651 0.0663,-0.01916 0.1567,-0.03843 0.2208,-0.06385 0.0803,-0.03179 0.1811,-0.08836 0.256,-0.131112 0.0666,-0.03798 0.1523,-0.09384 0.216,-0.136488 0.7033,-0.471 1.0549,-0.813792 1.856,-1.550461 l 4.1309,-3.799059 c 4.9282,-4.563552 8.0624,-7.349601 9.4028,-8.358132 0.1742,-0.13108 0.6169,-0.45584 0.9115,-0.598019 0.2034,-0.09815 0.213,-0.08504 0.4369,-0.114361 l 0.1052,0.03542 0.0473,0.05035 c 0.0233,0.225271 0.0144,0.296301 -0.0919,0.55863 -0.1348,0.29096 -0.2211,0.47179 -0.2588,0.542452 -0.2239,0.40204 -0.4652,0.792768 -0.7239,1.172168 -0.1699,0.24915 -0.574,0.82742 -1.2148,1.601811 -1.8399,2.22319 -5.3442,5.86677 -9.6694,10.70941 -0.0905,0.10137 -1.1744,1.32058 -1.7877,2.047991 -0.1795,0.21299 -0.4234,0.49362 -0.5906,0.716479 -0.0738,0.09848 -0.1616,0.237479 -0.2308,0.33924 0.0232,0.06887 0.0645,0.238919 0.1922,0.444789 0.2213,0.330102 0.4319,0.62308 0.6318,0.878962 0.2704,0.345918 3.3706,4.051879 5.4899,6.85261 l 1.356,1.8244 c 0.1162,0.1604 0.6157,0.9005 1.1754,1.5941 0.4508,0.5451 0.7631,0.897 0.9366,1.0558 0.0459,0.042 0.1787,0.1422 0.332,0.2489 0.0536,5.3e-4 0.1251,0.004 0.1787,0.002 0.0412,-0.001 0.096,-0.005 0.1369,-0.0103 0.0494,-0.006 0.1149,-0.0176 0.1635,-0.0286 l 0.367,-0.1017 c 1.2864,-0.3564 1.963,-0.7396 3.568,-1.3475 0.8438,-0.3263 1.5609,-0.5351 2.1515,-0.6263 0.3257,-0.0502 0.3712,-0.0501 0.6586,0.023 l 0.0623,0.059 0.0211,0.0806 c -0.0302,0.043 -0.0966,0.1485 -0.2215,0.2712 -0.4504,0.3892 -0.7525,0.6465 -0.9064,0.7717 -0.9856,0.8019 -1.8954,1.4067 -2.8837,2.2052 -0.0676,0.0546 -0.9517,0.7668 -1.2975,1.1573 -0.157,0.1772 -0.1954,0.251 -0.2896,0.4392 0.004,0.0634 0.001,0.1487 0.0123,0.2113 0.0137,0.0783 0.0489,0.1791 0.0753,0.2541 0.0325,0.0921 0.0865,0.2107 0.1236,0.301 0.51009,1.239 0.60099,1.3628 1.2567,2.6995 1.57809,3.0733 2.98429,6.2179 4.2188,9.43379 0.4374,1.1729 0.6674,1.7902 0.69009,1.8521 0.10031,0.2722 0.1705,0.5113 0.40371,0.8787 0.0267,0.0421 0.1338,0.2185 0.3264,0.3767 0.1528,0.1255 0.2637,0.159 0.3825,0.2162 z m -126.4723,-21.31849 c -2.7413,-1.8474 -4.0701,-2.8355 -6.8602,-4.608454 l 2.2144,-2.227908 c 1.8133,1.329089 2.4704,1.85897 4.4537,3.428562 -0.1487,-0.1887 -0.978,-1.218834 -1.4714,-1.900004 -0.7009,-0.99083 -1.0909,-1.540859 -1.17,-1.650119 -0.2055,-0.284109 -0.4848,-0.659069 -0.6926,-0.941519 0.893,-0.804942 1.7074,-1.5337 2.4433,-2.186332 0.8564,0.602142 1.6955,1.226841 2.5174,1.874052 1.1783,0.95509 1.8714,1.516978 2.0792,1.6857 -0.6159,-0.777521 -0.6167,-0.777002 -1.2179,-1.565942 -0.159,-0.20855 -0.376,-0.48283 -0.5308,-0.69447 -0.5463,-0.778968 -0.9133,-1.29626 -1.101,-1.551898 -0.1687,-0.229751 -0.3988,-0.532281 -0.5697,-0.760402 0.5965,-0.51294 0.9934,-0.855879 1.1905,-1.028808 l 1.1025,-0.981771 c 0.4797,0.637169 0.6907,0.906589 1.3473,1.837669 l 1.3112,1.884391 c 0.5998,0.856689 1.2121,1.704851 2.0405,2.826491 -0.874,0.79919 -1.4586,1.330039 -2.9328,2.642762 -0.8901,-0.527053 -1.5206,-0.911802 -1.8915,-1.154332 -1.1592,-0.788562 -1.7693,-1.203601 -1.8303,-1.2451 0.7798,1.213678 1.5702,2.420432 2.371,3.620132 l -1.578,1.4926 c -0.7348,0.7229 -1.1431,1.1245 -1.2248,1.2047 z m 91.4444,-11.037284 1.1515,-1.185828 c 1.2071,1.088638 1.9172,1.728978 2.1304,1.920938 -0.0443,0.133641 -0.4899,1.468991 -1.3368,4.006152 1.6733,-1.634252 2.6029,-2.542231 2.7887,-2.723952 0.7326,0.66675 1.047,0.95209 2.0814,1.917721 -3.0922,3.011653 -5.1513,5.021953 -6.1769,6.031053 -0.567,-0.506 -0.8656,-0.7722 -0.8957,-0.7985 -0.8031,-0.6844 -1.2493,-1.0646 -1.3387,-1.1406 0.0741,-0.1973 0.9664,-2.564283 1.495,-3.941902 -1.4367,1.412859 -2.3937,2.35549 -2.8712,2.827902 -0.1648,-0.1309 -0.3844,-0.305693 -0.5494,-0.436442 -0.1651,-0.130842 -0.3866,-0.303612 -0.5508,-0.435531 l -1.0721,-0.87485 c 2.0706,-2.053709 2.6013,-2.55461 5.1446,-5.166161 z m 8.365,12.806484 -1.1552,-1.2834 c -0.7633,0.7625 -1.2123,1.211 -1.3469,1.3456 0.1526,0.1724 0.3561,0.4023 0.5089,0.5746 0.1528,0.1723 0.3566,0.402 0.5099,0.574 l 1.027,1.1432 c -0.7603,0.7851 -1.1604,1.1982 -1.2005,1.2395 -0.0819,-0.0911 -0.8964,-1.0062 -2.4436,-2.7452 -0.742,-0.8145 -1.6382,-1.7366 -2.538,-2.6546 l 6.15,-6.021472 c 2.3667,2.477172 2.8219,2.990072 4.6744,5.009972 -0.0389,0.0407 -0.4286,0.4468 -1.1691,1.2183 l -1.8468,-2.0043 c -0.7321,0.7302 -1.1174,1.1145 -1.1559,1.153 l 1.7321,1.9001 c -0.0583,0.0595 -0.9908,1.0117 -1.1657,1.1902 z m -98.9842,102.5128 -2.3729,-2.04651 c 1.0703,-1.8439 1.0764,-1.84369 2.2849,-3.6 -1.5771,1.04661 -2.7916,1.84961 -3.6435,2.4091 -1.1482,-1.04509 -1.4307,-1.312 -2.8193,-2.66809 2.8817,-3.95391 4.4834,-6.1499 4.8052,-6.58811 0.1066,0.1054 1.2809,1.26291 2.1425,2.0969 -1.7492,2.1517 -2.9139,3.5873 -3.4944,4.3067 0.5184,-0.42019 0.9554,-0.76379 1.3111,-1.0307 0.1704,-0.1279 0.5709,-0.42259 1.1527,-0.8298 0.3152,-0.22059 1.0553,-0.7288 2.116,-1.44949 1.1875,1.03329 1.9799,1.7213 2.3772,2.0641 -0.91,1.18039 -1.6133,2.0859 -2.1099,2.71629 l -1.4314,1.8208 c 0.8512,-0.7039 1.2047,-1.02099 2.4636,-1.97219 0.1584,-0.11971 0.3677,-0.2817 0.5278,-0.39911 0.167,-0.12249 0.3939,-0.28019 0.5626,-0.40039 0.0375,-0.0267 0.4123,-0.29381 1.1244,-0.80131 0.1644,0.143 0.3841,0.3331 0.548,0.4767 0.1642,0.14381 0.3828,0.336 0.5458,0.4811 0.0547,0.0486 0.5446,0.489 1.0822,0.98561 -0.1959,0.1533 -0.4568,0.35809 -0.653,0.51099 -0.1963,0.153 -0.4586,0.35651 -0.6554,0.50891 -0.1966,0.15209 -0.459,0.3546 -0.6561,0.506 -0.1968,0.15119 -0.4595,0.35229 -0.6569,0.5027 -0.197,0.15009 -0.46,0.3497 -0.6577,0.49889 -1.0899,0.82081 -2.1889,1.62911 -3.2968,2.4251 z m 95.9195,-8.60321 c 0.0239,0 0.2442,-0.008 0.4757,0.0528 0.1904,0.0579 0.3556,0.1266 0.4956,0.2061 0.0623,0.0353 0.1439,0.0852 0.2033,0.12541 0.0743,0.0502 0.1706,0.12139 0.2405,0.1778 0.0861,0.0695 0.1969,0.16729 0.2772,0.24349 0.242,0.2197 0.4436,0.4673 0.605,0.7429 0.1227,0.20941 0.242,0.49161 0.125,0.9627 -0.139,0.5599 -0.5066,1.1612 -0.9353,1.68011 -0.0748,0.0905 -0.7717,0.9197 -1.7553,1.5625 -0.2691,0.1765 -0.5238,0.31639 -0.764,0.4198 -0.5426,0.2334 -0.9726,0.3145 -1.2913,0.23609 -0.6258,-0.15409 -1.1458,-0.7855 -1.4601,-1.12179 l 1.131,-1.0136 c 0.1427,-0.13161 0.3274,-0.31291 0.4709,-0.44371 0.1485,-0.13549 0.3517,-0.31029 0.5025,-0.44319 0.1052,0.0916 0.2487,0.21009 0.3506,0.3053 0.0616,0.0577 0.1372,0.14139 0.1987,0.1992 0.0456,0.043 0.1074,0.0994 0.1567,0.13799 0.1191,0.0932 0.1369,0.1031 0.2939,0.16331 0.1621,0 0.1972,-0.005 0.3426,-0.1112 0.0967,-0.0716 0.1718,-0.1472 0.2254,-0.2267 0.0181,-0.027 0.1147,-0.1457 0.1043,-0.30801 -0.002,-0.0292 -0.021,-0.15169 -0.0994,-0.2751 -0.0645,-0.1016 -0.2071,-0.2657 -0.4262,-0.4248 -0.1089,-0.0789 -0.2141,-0.13699 -0.3157,-0.17419 -0.0728,-0.0267 -0.1963,-0.0656 -0.3867,-0.0288 -0.2436,0.0615 -0.4169,0.1078 -0.52,0.1387 -0.067,0.0202 -0.7299,0.24489 -1.9886,0.674 -0.3422,0.1543 -0.6909,0.22359 -1.0461,0.20789 -0.2678,-0.0119 -0.6167,-0.0765 -1.013,-0.35189 -0.0625,-0.0434 -0.6871,-0.53311 -1.0068,-1.1372 -0.1331,-0.2514 -0.2571,-0.5852 -0.1036,-1.1331 0.0491,-0.17521 0.1447,-0.4391 0.3912,-0.8213 0.0414,-0.0641 0.2108,-0.3204 0.463,-0.60681 0.2192,-0.2487 0.8317,-0.9076 1.6568,-1.46309 0.0839,-0.0564 0.198,-0.1282 0.2847,-0.18021 0.0841,-0.0505 0.1975,-0.11589 0.2844,-0.16129 0.0932,-0.0488 0.2193,-0.11011 0.3158,-0.15171 l 0.2134,-0.0771 c 0.1606,-0.0623 0.3099,-0.1002 0.4479,-0.1139 0.2975,-0.0294 0.5021,0.007 0.8274,0.2114 0.3001,0.18881 0.5978,0.4466 0.8931,0.77371 -0.3458,0.356 -0.4885,0.51499 -1.0101,0.9953 -0.1535,0.1412 -0.3567,0.33109 -0.5169,0.4645 -0.1751,0.14579 -0.4209,0.32459 -0.6013,0.4637 -0.0893,-0.0796 -0.4677,-0.4358 -0.5996,-0.52541 -0.0553,-0.0375 -0.1093,-0.0572 -0.205,-0.0872 -0.1778,0.0413 -0.2481,0.0509 -0.398,0.2228 -0.0212,0.0243 -0.1284,0.14379 -0.1448,0.28789 -0.0367,0.3223 0.351,0.63191 0.5547,0.7425 0.1068,0.058 0.24,0.1196 0.4798,0.0791 0.0837,-0.0141 0.4903,-0.14139 0.81,-0.25679 0.1694,-0.0612 1.005,-0.40301 1.6956,-0.60871 0.2625,-0.0782 0.5804,-0.18309 1.0711,-0.2302 z m 1.7627,-6.03109 1.174,1.1083 c 0.8173,-0.94991 1.3283,-1.54351 1.5328,-1.78071 0.7625,0.70541 1.1638,1.07671 1.2039,1.11391 l -1.5548,1.7795 1.3591,1.2763 c 0.7378,-0.84081 1.3553,-1.5392 1.8526,-2.09491 l 1.2247,1.1193 c -1.8976,2.17571 -3.3692,3.83851 -4.4148,4.9886 -3.8487,-3.69299 -5.8743,-5.6368 -6.0769,-5.8312 0.84,-0.9278 1.529,-1.7106 2.067,-2.3482 l 1.9886,-2.4143 1.255,1.17351 c -0.9132,1.08209 -1.4503,1.7187 -1.6112,1.9099 z m -107.549,-84.9712 -3.20268,-2.8726 1.71298,-1.9827 3.8769,1.1 -2.7152,-2.4439 1.7468,-1.9805 6.0303,5.456 -1.8051,2.0985 -3.8217,-1.2518 2.7711,2.5226 -1.6514,2.0516 z m 118.2093,60.93029 c -0.4663,1.3597 -2.2736,6.89721 -5.8578,13.12721 -1.1796,2.0505 -3.3869,5.6005 -6.85,9.64229 -0.5036,0.5878 -5.1035,5.9394 -11.2927,10.58591 -0.4758,0.3573 -1.3106,0.9831 -2.4382,1.7046 -0.4743,0.30349 -1.1653,0.7152 -2.0729,1.2353 -0.2448,0.14539 -2.6753,1.6368 -4.9574,2.8027 -2.348,1.1997 -6.604,3.09809 -12.313,4.71209 -1.0622,0.3013 -2.0344,0.547 -2.9167,0.7371 -0.5336,0.11491 -1.473,0.2897 -2.683,0.50091 -0.7659,0.1303 -1.2446,0.21179 -1.4361,0.24439 -0.5459,0.0921 -0.8331,0.14111 -0.8617,0.14671 -0.0288,0.006 -0.3204,0.0582 -0.5654,0.15659 -0.2131,0.0832 -0.3583,0.1696 -0.4356,0.25911 -0.0461,0.0636 -0.0843,0.131 -0.1147,0.2023 -0.0681,0.1602 -0.0678,0.2666 -0.0887,0.4895 -0.002,0.0267 -0.0313,0.3479 -0.0424,0.53559 -0.003,0.0544 -0.0654,0.7673 -0.0118,1.0898 0.007,0.0444 0.018,0.1039 0.0332,0.14621 0.0109,0.0304 0.0338,0.0674 0.0483,0.0962 0.0511,0.043 0.0736,0.0662 0.1634,0.098 0.1081,0.0321 0.1921,0.0516 0.2521,0.0586 0.2445,0.0285 0.5428,-0.008 0.9825,-0.0627 1.7085,-0.21091 2.6575,-0.3289 2.8471,-0.3541 0.8537,-0.11321 1.4235,-0.198 2.8274,-0.4969 1.7794,-0.3789 4.473,-0.93321 8.7598,-2.4539 1.562,-0.5683 2.8562,-1.061 3.8825,-1.4781 0.8684,-0.35291 1.2435,-0.50591 2.4262,-1.1338 3.5749,-1.8982 4.6356,-2.7643 7.7608,-4.54731 0.1339,-0.0763 0.2779,-0.1695 0.2929,-0.1778 0.1065,-0.0589 0.2589,-0.1168 0.368,-0.17069 0.0589,-0.0291 0.8691,-0.4719 1.1804,-0.5764 0.0635,-0.0213 0.3455,-0.13801 0.6686,-0.0487 0.0616,0.017 0.3186,0.1266 0.3881,0.176 0.0315,0.0223 0.2498,0.24151 0.2742,0.2714 0.0118,0.0143 0.1317,0.1622 0.1887,0.31891 0.0321,0.0879 0.061,0.2548 0.0499,0.465 -0.002,0.0302 -0.0209,0.31219 -0.1487,0.58629 -0.054,0.1158 -0.113,0.1709 -0.1466,0.2095 -0.0268,0.0307 -0.0625,0.0718 -0.0894,0.10251 -0.069,0.0792 -0.3499,0.3927 -0.727,0.7585 -0.7322,0.7103 -0.964,0.8391 -2.0002,1.58229 -0.4499,0.31881 -0.716,0.50441 -0.7981,0.55661 -0.1878,0.11949 -0.4472,0.2642 -0.6389,0.37739 -1.5333,0.9057 -2.3852,1.4088 -2.5556,1.5093 -1.3252,0.78431 -2.0232,1.1959 -2.0942,1.23501 -0.8178,0.451 -2.8735,1.35189 -3.3876,1.5749 -0.2509,0.10879 -3.0133,1.3077 -5.0745,2.0412 -0.7793,0.27729 -1.1784,0.39169 -1.9791,0.5994 -0.3623,0.094 -0.8477,0.2102 -1.212,0.2962 -4.8337,1.1131 -8.2913,1.8852 -10.3729,2.31599 -0.1345,0.0279 -1.0102,0.2017 -1.3491,0.2568 -0.1593,0.0259 -0.3733,0.051 -0.5322,0.0792 -0.2668,0.035 -0.4813,0.0875 -0.6435,0.1573 -0.0475,0.0205 -0.1066,0.0562 -0.1523,0.0803 -0.0667,0.0901 -0.087,0.1157 -0.1263,0.2502 -0.0372,0.12759 -0.0705,0.30209 -0.0939,0.43289 -0.0564,0.42221 -0.086,0.6443 -0.089,0.66651 -0.0232,0.1753 -0.0665,0.4074 -0.0864,0.5831 -0.008,0.0735 -0.0243,0.2708 -0.0229,0.4929 5.3e-4,0.0808 0.0123,0.1374 -0.0166,0.2691 l 0.017,0.0843 0.0694,0.0985 0.0703,0.0423 c 0.0838,0.0139 0.1482,0.0188 0.1933,0.0146 0.0588,-0.005 0.1356,-0.0245 0.1941,-0.0325 0.174,-0.0238 0.4078,-0.0412 0.5823,-0.0616 0.8173,-0.0954 1.7924,-0.2612 3.2455,-0.5475 2.8295,-0.5638 5.6398,-1.2061 8.4311,-1.927 0.466,-0.1204 6.5387,-1.7096 9.2003,-2.8298 0.9109,-0.3833 4.9712,-2.2206 8.8569,-4.3833 1.0933,-0.6129 1.9968,-1.1364 2.7104,-1.5707 0.7878,-0.4794 1.5647,-0.976 2.3308,-1.49 0.8119,-0.4819 1.5946,-1.0049 2.3482,-1.5691 0.1951,-0.1461 0.6575,-0.4803 1.2654,-1.0193 0.2185,-0.1937 0.4999,-0.463 0.7153,-0.6602 1.0788,-0.988 2.0939,-1.8278 2.2049,-1.9231 0.7161,-0.6147 1.9628,-1.7005 3.495,-3.1708 0.7174,-0.6884 2.1513,-2.07 3.491,-3.5396 2.2496,-2.4676 4.8599,-5.8906 5.9622,-7.4481 0.8087,-1.1425 2.6565,-3.8535 4.8585,-7.9672 1.7038,-3.183 2.5778,-5.1752 3.0971,-6.5227 0.8929,-2.3169 2.5185,-7.5392 3.0272,-9.4593 0.3144,-1.1863 0.9326,-3.9923 1.4854,-8.0454 0.0518,-0.3801 0.1016,-0.8894 0.1564,-1.269 0.0318,-0.2203 0.0868,-0.5119 0.1212,-0.7318 0.0769,-0.5017 0.1322,-0.9208 0.1658,-1.2574 0.018,-0.1798 0.0311,-0.4207 0.0508,-0.6003 0.008,-0.0741 0.0248,-0.172 0.0331,-0.246 0.008,-0.068 0.0168,-0.1589 0.0207,-0.2273 0.0113,-0.1966 0.0414,-0.5041 -0.1819,-0.5325 -0.1673,-0.0214 -1.18,0.0156 -1.6857,0.0249 -0.1119,0.002 -0.2985,0.002 -0.5598,10e-4 -0.0258,0.002 -0.06,0.008 -0.0852,0.0151 -0.1901,0.0497 -0.2416,0.0859 -0.4204,0.2544 -0.0568,0.1506 -0.0864,0.215 -0.1322,0.4402 -0.0352,0.1728 -0.0721,0.4053 -0.1015,0.5792 -0.0218,0.1284 -0.32,1.9272 -0.4378,2.5676 -0.7356,3.784 -1.1962,6.1487 -1.3817,7.0944 -0.1634,0.8332 -0.5528,2.9246 -0.9173,4.1449 -0.2286,0.7655 -1.2148,3.5259 -1.7945,5.015 -0.2347,0.603 -1.1998,3.0076 -1.6814,3.9726 -0.0478,0.0959 -0.5638,1.0353 -1.5479,2.8183 l -1.4289,2.6014 c -0.6978,1.1038 -1.2212,1.8738 -1.5701,2.3101 -0.3833,0.4793 -0.937,1.0452 -1.1911,1.2868 -0.0657,0.0624 -0.1499,0.1504 -0.2243,0.2022 -0.0581,0.0404 -0.1438,0.0818 -0.2091,0.1092 -0.3381,0.1423 -0.6903,0.1537 -0.9122,0.0959 -0.3032,-0.0789 -0.6125,-0.4259 -0.636,-0.4572 -0.0846,-0.1524 -0.1368,-0.2559 -0.1564,-0.3104 -0.0102,-0.0284 -0.046,-0.1461 -0.0572,-0.2969 -0.0138,-0.1458 -0.0108,-0.2655 0.009,-0.3592 0.0227,-0.1063 0.1227,-0.3414 0.2743,-0.6703 0.0229,-0.0496 0.4426,-0.9383 0.4684,-0.9864 0.0232,-0.0431 0.0604,-0.097 0.0845,-0.1396 0.0319,-0.0564 0.0705,-0.1338 0.1007,-0.1912 0.10509,-0.1988 0.1753,-0.3312 0.2105,-0.3974 0.2628,-0.4951 0.4092,-0.7699 0.4393,-0.8244 0.076,-0.1378 1.4061,-2.4595 1.5624,-2.7328 0.6817,-1.1922 0.6807,-1.1935 1.311,-2.4138 0.63269,-1.2458 0.9825,-1.9388 1.0495,-2.0789 0.0819,-0.1714 0.26899,-0.5739 0.504,-1.1619 0.5477,-1.3706 1.3947,-3.9427 1.6234,-4.6443 0.4518,-1.386 0.7164,-2.3946 1.14319,-4.005 0.0927,-0.3498 0.24811,-0.871 0.43531,-1.7561 l 0.4142,-2.0709 c 0.2463,-1.2737 0.4618,-2.3389 0.6418,-4.2766 0.0169,-0.1819 0.0334,-0.4248 0.0499,-0.6067 0.0188,-0.2055 0.0499,-0.4788 0.0683,-0.6843 0.0142,-0.1588 0.0337,-0.3706 0.042,-0.5298 0.006,-0.1095 0.004,-0.2559 0.009,-0.3654 0.002,-0.0508 0.0694,-0.6161 0.005,-1.0182 -0.0155,-0.0967 -0.0488,-0.2826 -0.2514,-0.4199 -0.1484,-0.1006 -0.3483,-0.1256 -0.707,-0.1214 -0.5591,0.002 -0.9804,0.0471 -1.2639,0.1341 -0.1988,0.061 -0.2861,0.1272 -0.4009,0.3311 -0.1871,0.3322 -0.2758,0.6521 -0.3678,1.2166 -0.0466,0.2857 -0.2572,2.0103 -0.3969,2.8673 -0.5178,3.1766 -1.271,5.8512 -2.2639,8.9127 z M 80.344181,152.90953 c -7.94e-4,0.2696 0.02993,0.48621 0.09249,0.6495 0.0806,0.21041 0.139218,0.25201 0.341418,0.4481 0.16977,0.0751 0.27536,0.1085 0.512281,0.1376 0.05426,0.007 0.33002,0.0372 0.546579,0.007 0.02249,-0.003 0.25223,-0.035 0.406921,-0.20109 0.01897,-0.0203 0.190609,-0.22401 0.255591,-0.4948 0.0048,-0.02 0.04091,-0.2247 0.03735,-0.4098 -0.03497,-0.48091 -0.06023,-0.7811 -0.07584,-0.90051 -0.03938,-0.3018 -0.09314,-0.8592 -0.683451,-1.0073 -0.111447,-0.028 -0.463359,-0.0879 -0.765177,-0.0352 -0.01662,0.003 -0.231561,0.0539 -0.322681,0.0978 -0.101409,0.0488 -0.127751,0.0816 -0.19789,0.153 -0.0907,0.2016 -0.09686,0.29221 -0.116951,0.54001 -0.01979,0.6432 -0.03,0.9818 -0.03064,1.01559 z m 2.223039,-11.21489 c 0.10009,-1.02901 0.152699,-1.57061 0.157811,-1.62481 0.08666,-0.9701 0.145539,-1.57599 0.17666,-1.8175 0.04763,-0.36959 0.182829,-1.2296 0.43375,-2.4463 0.625739,-3.06529 1.402588,-6.0876 2.330579,-9.067 0.33582,-1.0782 1.511761,-4.6619 2.552139,-7.08289 0.80264,-1.8677 2.408722,-5.0541 4.705951,-9.0094 0.78863,-1.3578 2.634221,-4.5543 5.87793,-8.6621 0.246111,-0.3116 0.578419,-0.7239 0.830181,-1.031 0.218239,-0.2662 0.512489,-0.6186 0.735199,-0.8811 0.1842,-0.217073 0.4314,-0.505104 0.6199,-0.718474 0.7112,-0.80544 0.8773,-0.978808 1.6427,-1.733029 0.3405,-0.335571 0.8003,-0.77705 1.1458,-1.107551 3.2901,-3.14302 5.8781,-5.494909 7.7639,-7.05567 1.5615,-1.292329 2.739,-2.148848 4.6916,-3.39534 0.8591,-0.54846 4.7328,-3.026619 8.8167,-5.114708 1.1211,-0.579631 2.2602,-1.119481 3.4172,-1.619541 0.3415,-0.147579 1.712,-0.731499 3.4623,-1.361141 3.0534,-1.098439 6.188,-1.97367 8.8927,-2.62246 0.4161,-0.09982 4.5853,-1.110488 8.4003,-1.638261 1.1058,-0.152979 2.4977,-0.267559 2.7743,-0.304548 0.1435,-0.01918 0.4139,-0.0016 0.6807,-0.246269 0.0115,-0.0105 0.1246,-0.131472 0.1596,-0.267002 0.007,-0.02706 0.0578,-0.419618 0.036,-0.55758 -0.0124,-0.07853 -0.0693,-0.297249 -0.2198,-0.48224 -0.0568,-0.06979 -0.1355,-0.144349 -0.312,-0.179279 -0.0269,-0.0053 -0.1181,-0.0096 -0.2736,-0.01273 -0.1275,-0.0016 -0.256,-0.0026 -0.5092,0.02673 -0.673,0.07808 -8.0568,1.201692 -13.3158,2.515221 -2.6963,0.67345 -5.8055,1.645791 -8.8089,2.867261 -7.4331,3.022939 -12.7217,6.510359 -15.6521,8.542938 -1.4281,0.990552 -3.4004,2.42902 -5.4981,4.254561 -1.8964,1.650381 -4.4698,4.063111 -7.2323,6.986709 -1.511309,1.599382 -2.748451,2.967591 -4.71631,5.617513 -0.5543,0.7464 -2.76886,3.7486 -5.144411,7.7444 -2.55747,4.3019 -3.98477,7.5218 -4.578479,8.9008 -0.87008,2.0209 -1.799421,4.5031 -2.93234,8.298 -1.241629,4.1588 -2.681992,9.838 -2.90666,14.1724 -0.0052,0.101 -0.06214,1.3169 -0.0083,2.0228 0.02233,0.269 0.04314,0.4357 0.06243,0.5001 0.0222,0.0739 0.066,0.1679 0.103301,0.2355 0.09161,0.1659 0.3028,0.2892 0.555191,0.3012 0.429379,0.0204 0.648769,-0.0948 0.80595,-0.2993 0.134649,-0.1752 0.15353,-0.3463 0.183399,-0.7133 0.03779,-0.9683 0.06916,-1.6136 0.09412,-1.9356 z m 86.4317,36.2738 -0.2286,-2.0834 c -0.0766,-0.74451 -0.15,-1.2729 -0.2203,-1.58521 -0.0509,-0.2263 -0.1173,-0.4485 -0.199,-0.6668 -0.1263,-0.4445 -0.1329,-1.24719 -0.1406,-1.31279 -0.0348,-0.20871 -0.0687,-0.36751 -0.1018,-0.4762 -0.1171,-0.3849 -0.3059,-0.67371 -0.6201,-1.189 -1.1807,2.52129 -2.4723,5.39239 -3.0785,6.24229 -0.0985,0.13811 -0.2977,0.3919 -0.4826,0.4768 -0.0514,0.0235 -0.205,0.077 -0.3765,-7.9e-4 -0.0228,-0.0103 -0.236,-0.1237 -0.3771,-0.3313 -0.1405,-0.2068 -0.1914,-0.3731 -0.0741,-0.7104 0.093,-0.2677 0.4801,-1.1296 1.1612,-2.5856 0.7361,-1.5879 1.1693,-2.5218 1.2996,-2.8018 0.1058,-0.2272 0.2799,-0.6067 0.5224,-1.1387 0.1859,-0.4276 0.2315,-0.5604 0.3402,-0.8681 -0.0195,-0.0654 -0.061,-0.2211 -0.1599,-0.4259 -0.1263,-0.2616 -0.2621,-0.4637 -0.4813,-0.8402 -0.2176,-0.3779 -0.3525,-0.6344 -0.4048,-0.7696 -0.0352,-0.0909 -0.0585,-0.2203 -0.0931,-0.3115 -0.0736,-0.1943 -0.3326,-0.6467 -0.4841,-0.9189 -0.3174,-0.5699 -0.5009,-0.9069 -0.5502,-1.0109 -0.1485,-0.3133 -0.2318,-0.6943 -0.243,-0.7311 -0.0915,-0.2999 -0.2555,-0.641 -0.4888,-1.1548 -0.0321,-0.0708 -0.3821,-0.7729 -0.5693,-1.4471 l -0.1261,-0.5519 c -0.1474,-0.5281 -0.5811,-0.9531 -1.1285,-1.4377 -0.0512,-0.0453 -0.5156,-0.454 -1.0844,-0.8337 -0.1253,-0.0837 -0.2942,-0.1928 -0.4252,-0.2672 -0.1815,-0.1029 -0.4331,-0.2223 -0.6196,-0.3157 -0.1489,-0.0745 -0.3516,-0.1658 -0.498,-0.245 -0.2111,-0.1143 -0.4323,-0.2634 -0.6635,-0.4475 -0.0415,-0.0272 -0.4309,-0.2556 -0.8984,-0.4227 -0.0318,-0.0113 -0.3867,-0.1432 -0.6564,-0.1572 -0.0883,-0.005 -0.1333,-0.006 -0.2484,0.0456 -0.1106,0.2229 -0.1647,0.3171 -0.2825,0.6525 -0.1716,0.5329 -0.2619,0.8133 -0.271,0.8414 -0.0676,0.2097 -0.3198,1.0552 -0.7006,2.0889 -0.51,1.3844 -0.615,1.5207 -1.3048,3.0078 -0.4461,1.0348 -0.9619,2.0303 -1.5471,2.9865 -0.143,0.2337 -0.6457,0.9989 -1.0459,1.4973 -0.1787,0.2308 -0.3553,0.4266 -0.5297,0.5875 -0.102,0.094 -0.4151,0.3248 -0.4372,0.3416 -0.0318,0.0239 -0.4305,0.2859 -0.5405,0.5849 -0.0208,0.0565 -0.0376,0.1555 -0.0503,0.2969 -0.005,0.0291 -0.0314,0.1041 -0.0674,0.185 l -0.0529,0.0343 c -0.0337,0.003 -0.3871,0.0206 -0.6596,0.1582 -0.2399,0.1211 -0.3743,0.2896 -0.5334,0.5523 -0.1156,0.1909 -0.2324,0.4543 -0.2848,0.5706 -0.1407,0.3118 -0.2285,0.5068 -0.2635,0.5848 -0.3459,0.7731 -0.4145,0.9775 -0.9277,1.9035 -0.2696,0.3928 -0.4117,0.7387 -0.4263,1.0374 0.0288,0.3679 0.0389,0.613 0.0303,0.7354 -0.02,0.2848 -0.085,0.4197 -0.1176,0.5586 -0.005,0.0226 -0.0638,0.2306 -0.0436,0.4614 0.003,0.0361 0.0795,0.4305 0.1849,0.7004 0.1168,0.2992 0.2353,0.5778 0.4863,0.778 0.1404,0.112 0.3841,0.2417 0.8054,0.3969 0.4206,0.1548 0.7456,0.1668 0.8689,0.2205 0.1307,0.0571 0.1954,0.1869 0.222,0.2264 0.1153,0.1714 0.2432,0.2964 0.4897,0.4842 0.4633,0.3529 1.0631,0.7005 1.5322,1.1919 0.1441,0.151 0.3007,0.4012 0.4826,0.6813 5.1886,-0.2226 8.8863,-0.4708 11.093,-0.7444 0.995,-0.1235 1.3879,-0.2659 1.9414,-0.5016 0.4628,-0.197 1.5247,-0.7226 3.134,-1.1932 0.5201,-0.1395 0.8588,-0.2513 1.0159,-0.3355 0.0715,-0.0383 0.0962,-0.0672 0.173,-0.1538 z m 0.0268,-20.33661 c 0.1412,0.65251 0.1954,1.0963 0.2903,1.4549 0.0249,0.0942 0.0586,0.2203 0.0957,0.3104 0.0214,0.0522 0.0627,0.1158 0.0871,0.1667 0.0259,0.0535 0.0613,0.12481 0.08,0.1813 0.0961,0.2897 0.1087,0.8489 0.1211,1.21501 0.001,0.0298 -0.0155,0.39259 0.0341,0.5954 0.0112,0.046 0.0372,0.1041 0.0531,0.14879 0.1056,-0.14919 0.1869,-0.27729 0.2438,-0.3845 0.0806,-0.1518 0.1764,-0.3601 0.2518,-0.51449 0.1976,-0.40391 0.3947,-0.80811 0.7747,-1.6232 l 1.9193,-4.11691 c 0.1728,-0.3705 3.1093,-6.66929 3.4548,-7.41029 -0.6657,-0.61491 -1.5206,-1.4126 -1.9456,-1.7086 -0.1999,-0.14841 -0.411,-0.27641 -0.6333,-0.38391 -0.2039,-0.0986 -0.5782,-0.2329 -1.0606,-0.39769 -0.9706,-0.2887 -1.6921,-0.56481 -2.1643,-0.82831 -0.0297,-0.0165 -0.352,-0.2089 -0.5705,-0.3715 -0.2001,-0.16299 -0.3587,-0.2816 -0.476,-0.3556 -0.1925,-0.1197 -0.3605,-0.1983 -0.5041,-0.2361 -0.0161,-0.004 -0.2799,-0.0435 -0.3277,-0.0578 -0.2925,-0.0877 -0.8088,-0.4401 -1.2915,-0.81411 -0.412,-0.3193 -2.8085,-2.3304 -3.9835,-3.3624 -0.4451,-0.391 -0.7083,-0.636 -0.9135,-0.75449 -0.1714,-0.0843 -0.28,-0.1329 -0.3259,-0.14571 -0.168,-0.0537 -0.3168,-0.0437 -0.4467,0.0298 -0.1451,0.0823 -0.2456,0.2197 -0.311,0.4614 -0.1082,0.4006 -0.2944,1.739 -0.3575,2.0437 -0.089,0.42961 -0.1763,0.45 -0.289,0.82831 -0.1212,0.40709 -0.3559,1.55249 -0.4632,2.07239 0.1135,0.1653 0.8155,1.14561 1.1039,1.6733 0.009,0.0164 0.0922,0.165 0.1499,0.343 0.1328,0.4101 0.1313,0.78221 0.156,1.4282 0.007,0.1825 0.0149,0.91511 0.0592,1.2163 0.0136,0.0922 0.0276,0.3199 0.1645,0.5983 0.0241,0.049 0.1332,0.24 0.2978,0.45801 0.1817,0.2407 0.583,0.69099 1.2039,1.35079 0.5895,0.6227 2.2764,2.331 2.3955,2.45431 0.4863,0.49249 0.9125,0.95429 1.2784,1.38549 0.1958,0.2306 0.7841,0.929 1.2043,1.6177 0.1625,0.2722 0.2878,0.5041 0.3758,0.6958 0.1308,0.28491 0.163,0.3998 0.2689,0.7363 z m 10.3941,16.5718 0.0231,0.17251 c 1.616,-0.63211 2.5155,-0.9812 3.6122,-1.3495 1.4478,-0.46781 2.3537,-0.7572 2.7175,-0.86831 1.5877,-0.48479 3.6639,-0.9873 4.5829,-1.22239 1.734,-0.4474 2.6978,-0.69391 2.8915,-0.73931 0.601,-0.1411 1.9624,-0.4215 3.0281,-0.59859 2.9692,-0.49321 4.1921,-0.4278 5.99,-0.59721 0.2726,-0.0257 1.3785,-0.1167 2.6918,-0.50419 1.1321,-0.37041 1.7985,-0.58631 1.9995,-0.6477 0.7216,-0.22071 2.1774,-0.61921 3.6347,-1.01131 1.543,-0.41509 4.3376,-1.1269 6.1317,-1.8036 0.3314,-0.12129 0.596,-0.2436 0.7941,-0.36689 0.2094,-0.13031 0.4675,-0.33601 0.6723,-0.47351 0.5022,-0.3373 1.1889,-0.7607 1.6985,-1.08669 l 0.0745,-0.109 c 0.4086,-2.05381 1.0992,-5.15601 1.3243,-10.38651 0.0572,-1.3303 0.077,-3.9995 -0.1013,-6.65639 -0.2086,-3.10771 -0.8028,-8.62751 -3.0042,-15.28071 -1.9607,-5.926 -4.6208,-10.79799 -6.7347,-14.07679 -4.1315,-6.4081 -8.6609,-10.6622 -9.7732,-11.7053 -4.3799,-4.1078 -8.3681,-6.659423 -10.6607,-8.025763 -1.4597,-0.870011 -7.4379,-4.43624 -15.6462,-6.63189 -3.7646,-1.00702 -9.2089,-2.043599 -15.4437,-2.115751 -0.3378,-0.0039 -3.3877,-0.0402 -6.7493,0.289401 -1.1092,0.10876 -3.709,0.37315 -7.3372,1.17171 -3.4167,0.751991 -9.4633,2.385121 -16.3738,6.154021 -1.4042,0.765828 -7.1175,3.925898 -12.9176,9.431872 -5.0807,4.8231 -8.2313,9.5656 -9.0061,10.7329 -2.2521,3.3926 -5.1066,8.44419 -7.1776,14.62169 -4.333364,12.926 -3.324873,24.23811 -2.293244,30.2088 0.243882,1.41151 1.237782,7.1521 4.044944,13.74121 2.6719,6.27159 5.5115,10.20919 6.6949,11.87719 1.3012,-0.1742 1.3073,-0.12479 2.6087,-0.2979 1.577,-0.20969 9.4356,-1.44229 10.4861,-1.5885 1.5502,-0.20399 2.6551,-0.36459 3.3147,-0.482 0.6893,-0.1226 1.6662,-0.33729 2.9308,-0.64369 2.5377,-0.56821 7.2109,-1.015 10.3099,-1.3813 0.5817,-0.0644 0.9687,-0.11321 1.1608,-0.14641 0.3781,-0.0654 0.6273,-0.1191 0.7476,-0.1611 0.0651,-0.0226 0.1472,-0.0643 0.2103,-0.0918 l 0.103,-0.12189 c 0.002,-0.0451 -2.7e-4,-0.5017 0.0845,-0.8992 0.0558,-0.26151 0.1747,-0.64551 0.3777,-1.2823 0.0686,-0.21521 0.1657,-0.50031 0.2324,-0.716 0.0548,-0.17751 0.1209,-0.41611 0.1744,-0.59391 0.1058,-0.37719 0.2061,-0.6872 0.3008,-0.93009 0.1279,-0.28801 0.2102,-0.46691 0.2471,-0.5364 0.1405,-0.26491 0.233,-0.3493 0.3408,-0.4934 0.0894,-0.11951 0.2957,-0.40891 0.4843,-0.8693 0.2189,-0.534 0.4656,-1.3692 0.7924,-2.77441 0.065,-0.2793 0.2462,-1.1204 0.4048,-1.86849 0.0529,-0.24951 0.1208,-0.5828 0.179,-0.831 0.0482,-0.20571 0.1235,-0.4772 0.1733,-0.68251 0.063,-0.2668 0.1001,-0.4455 0.1115,-0.53609 0.0395,-0.3131 -0.0251,-0.6307 -0.0292,-0.70071 -0.002,-0.0295 -0.0153,-0.18149 0.0187,-0.2947 0.0598,-0.19899 0.2416,-0.3696 0.2849,-0.43439 0.0317,-0.0474 0.2869,-0.4958 0.5037,-1.0232 0.1257,-0.3263 0.2079,-0.54441 0.2467,-0.65431 l 0.3055,-0.8699 c 0.0627,-0.15619 0.1058,-0.2517 0.1293,-0.2864 0.0354,-0.0521 0.1003,-0.1078 0.1381,-0.1582 0.0419,-0.0557 0.0894,-0.13599 0.1258,-0.1955 0.317,-0.55649 0.493,-0.86569 0.528,-0.92769 0.1833,-0.32371 0.3269,-0.5711 0.4307,-0.74241 l 0.1566,-0.2582 c 0.1128,-0.1313 0.1908,-0.23769 0.234,-0.3195 0.0901,-0.2247 0.1607,-0.43249 0.2119,-0.6232 0.0431,-0.16059 0.1542,-0.7043 0.215,-1.0875 0.0109,-0.0686 0.1316,-0.89399 0.1615,-1.37909 0.0271,-0.44131 0.0194,-0.44421 -0.0269,-0.88381 l -0.0452,-0.0233 c -0.044,0.0256 -0.1069,0.0533 -0.1465,0.0854 -0.0441,0.0358 -0.0909,0.0967 -0.1271,0.1406 -0.0791,0.0959 -0.1774,0.2296 -0.249,0.3312 -0.2037,0.2896 -0.6542,1.053 -0.9596,1.4874 -0.2161,0.3075 -0.4357,0.6165 -0.9476,1.167 -0.1518,0.1619 -0.2505,0.2583 -0.2964,0.2891 -0.0548,0.0368 -0.1389,0.0663 -0.1985,0.0947 l -0.0498,-0.0149 c -0.0434,-0.0461 -0.1066,-0.1031 -0.1447,-0.1537 -0.0278,-0.037 -0.0568,-0.0919 -0.0785,-0.1327 -0.0218,-0.041 -0.0487,-0.0967 -0.0662,-0.1397 -0.0123,-0.0301 -0.1708,-0.527 -0.1889,-0.6229 -0.0892,-0.4716 0.1092,-0.7248 0.2307,-0.9317 0.5013,-0.8563 0.7805,-1.3316 0.8378,-1.4259 0.0577,-0.0948 0.5696,-0.9596 1.2669,-1.8236 0.0152,-0.0189 0.1724,-0.2036 0.4716,-0.554 0.3411,-0.4007 0.6588,-0.7593 0.7644,-1.0708 0.0599,-0.1768 0.0789,-0.4251 -0.0194,-0.7463 -0.0321,-0.1049 -0.2398,-0.6127 -0.6233,-1.5236 -0.3572,-0.9507 -0.3869,-1.8278 -0.5166,-3.3456 -1.132,0.1363 -1.6682,0.2374 -2.5334,0.0427 -0.2427,-0.0546 -0.8394,-0.2302 -1.7902,-0.5268 -0.3634,-0.0999 -0.368,-0.0906 -0.7432,-0.1258 l -0.0314,0.0204 c -0.005,0.18859 -0.0185,0.43999 -0.0155,0.62869 0.004,0.2196 0.0293,0.5115 0.0412,0.7308 0.0473,0.9941 0.0707,1.5174 0.07,1.5698 -0.001,0.0933 0.003,0.6377 -0.164,0.9185 -0.2303,0.3883 -0.7146,0.3341 -0.8479,0.3102 -0.3638,-0.0653 -0.5775,-0.3284 -0.705,-0.7862 -0.1953,-0.7015 -0.2375,-2.0254 -0.3069,-2.8964 -0.0552,-0.5823 -0.0964,-0.9452 -0.1236,-1.0887 -0.0235,-0.1238 -0.0722,-0.285 -0.1032,-0.4072 -0.0829,-0.0579 -0.1641,-0.1353 -0.3605,-0.1833 -0.1196,-0.0293 -0.4648,-0.0534 -0.489,-0.0579 -0.398,-0.0726 -0.5463,-0.3908 -0.7457,-0.6834 -0.1119,-0.1643 -0.3025,-0.4439 -0.4113,-0.5195 -0.1188,-0.0572 -0.1811,-0.0878 -0.1867,-0.0918 -0.0294,-0.0208 -0.062,-0.0567 -0.0858,-0.0837 -0.2341,-0.26641 -0.588,-1.00341 -0.7736,-1.59561 -0.1059,-0.338 -0.262,-0.7406 -0.0485,-1.4162 0.1292,-0.4091 0.3422,-0.7153 0.504,-1.3382 0.0718,-0.2765 0.0898,-0.4691 0.1254,-0.9439 0.009,-0.1184 0.0156,-0.2768 0.0299,-0.3947 0.0211,-0.175 0.0647,-0.4062 0.0967,-0.5796 0.0327,-0.1774 0.0785,-0.4136 0.119,-0.5894 0.15,-0.5808 0.229,-0.8866 0.2368,-0.9172 0.0713,-0.2787 0.1089,-0.4255 0.1126,-0.4401 l 0.0694,-0.2751 c 0.003,-0.0384 -0.007,-0.0895 -0.01,-0.1279 l -0.065,-0.071 -0.3401,-0.0843 c -0.0642,-0.0624 -0.0717,-0.0698 -0.131,-0.1496 0.001,-0.0269 0.0175,-0.2956 0.0486,-0.8061 0.1315,-1.0173 0.2399,-1.7988 0.3253,-2.3444 l 0.25081,-1.4457 c 0.0184,-0.0735 0.0483,-0.1704 0.0771,-0.2404 0.0654,-0.1579 0.33171,-0.5979 0.5746,-0.9834 0.0553,-0.0876 1.06911,-1.6542 1.1242,-1.7419 0.2062,-0.3278 1.0329,-1.6419 1.9239,-3.361 0.1149,-0.2217 0.5702,-1.1112 1.09151,-2.2455 0.27969,-0.6748 0.54129,-1.2222 0.78479,-1.6419 0.30591,-0.52739 0.73771,-1.12349 1.4252,-1.97889 0.2811,-0.34991 0.6761,-0.8002 0.95081,-1.1552 0.17869,-0.2309 0.4001,-0.5515 0.57239,-0.7873 0.2083,-0.2853 0.503,-0.7282 1.0722,-1.4032 0.4591,-0.5465 0.8599,-0.9839 1.2025,-1.3124 0.4319,-0.4141 0.8342,-0.7392 1.63901,-1.13621 0.0742,-0.0367 0.74419,-0.37509 1.53539,-0.61649 0.6251,-0.1907 1.45591,-0.3152 2.6123,-0.0996 0.80381,0.1276 1.5035,0.3274 2.0993,0.5995 0.194,0.1008 0.296,0.1538 0.30621,0.1591 0.37519,0.1949 0.71639,0.491 0.90429,0.8008 0.1588,0.2617 0.3006,0.6843 0.35981,1.1705 0.0384,0.3148 0.0429,0.9523 0.007,1.5855 -0.0478,0.8424 -0.1878,1.1481 -0.4438,2.0622 -0.227,0.811 -0.3275,1.0875 -0.3672,1.83499 -0.015,0.2837 -0.0166,0.6388 -0.005,1.0654 -0.001,0.2604 -0.0275,0.4925 -0.0791,0.6963 -0.0192,0.0762 -0.1298,0.3747 -0.3249,0.7161 -0.0719,0.1258 -0.3981,0.714 -0.8861,1.1464 -0.0278,0.0247 -0.2863,0.2644 -0.6403,0.378 -0.2075,0.0666 -0.2668,0.0598 -0.5378,0.0882 -0.1881,0.0229 -0.3043,0.0427 -0.3483,0.0595 -0.042,0.0159 -0.1614,0.0735 -0.2335,0.1873 -0.0388,0.0614 -0.0885,0.1873 -0.0366,0.3613 0.024,0.0808 0.096,0.2247 0.2435,0.3438 0.1108,0.0895 0.2485,0.117 0.462,0.1095 0.1479,-0.005 0.442,-0.0377 0.8825,-0.0975 0.2168,-0.027 0.5061,-0.0606 0.7234,-0.0828 0.0368,-0.004 0.6635,-0.0549 0.7364,-0.0676 0.1869,-0.0326 0.2262,-0.0652 0.3891,-0.1625 0.0237,-0.0442 0.0605,-0.1008 0.0791,-0.1475 0.0189,-0.0471 0.0309,-0.1143 0.0449,-0.1631 0.0464,-0.1618 0.0944,-0.3238 0.2159,-0.6378 0.128,-0.3168 0.213,-0.5452 0.2552,-0.6853 0.0534,-0.1774 0.0934,-0.3584 0.1202,-0.5428 0.0362,-0.1356 0.2325,-0.5641 0.3974,-0.8469 0.1509,-0.2516 0.3178,-0.4911 0.5008,-0.7186 0.132,-0.1641 0.2213,-0.2764 0.4879,-0.5048 l 0.5471,-0.4281 c 0.4657,-0.38419 0.5329,-0.57999 0.7706,-0.92939 0.3362,-0.4942 0.6975,-0.8065 0.9056,-0.9716 0.0997,-0.0791 0.6252,-0.503 1.1262,-0.5906 0.2227,-0.0389 0.5477,-0.002 0.9009,0.0762 0.1515,0.0335 0.7599,0.1827 1.4704,0.4933 0.4346,0.19 1.9531,0.8873 2.6201,1.7705 0.678,0.89789 0.7227,2.43069 0.7512,2.71059 0.0154,0.1516 0.1011,0.9968 0.2865,1.4971 0.0369,0.0996 0.0878,0.2323 0.137,0.3264 0.0502,0.0961 0.1355,0.2139 0.1937,0.3054 0.0583,0.0915 0.1437,0.2091 0.1948,0.3048 0.0358,0.0671 0.0711,0.1627 0.1015,0.2324 l -0.0488,0.0398 c -0.6854,0.008 -0.7744,0.0129 -1.5137,-0.1703 -0.1799,-0.0445 -0.5007,-0.1615 -0.7413,0.0118 -0.3216,0.2316 -0.3851,0.8276 -0.4208,1.0513 -0.027,0.2234 -0.0653,0.3894 -0.1147,0.4979 -0.0159,0.035 -0.0634,0.1218 -0.1068,0.1596 -0.023,0.02 -0.0582,0.0405 -0.0831,0.0579 -0.1557,0.0284 -0.8179,0.1128 -1.4914,0.5277 -0.4591,0.2828 -0.8058,0.5949 -1.2509,0.8992 -0.1027,0.0702 -0.401,0.3123 -0.7737,0.2977 -0.2491,-0.01 -0.6099,-0.1973 -0.6772,-0.2209 -0.0416,-0.0146 -0.2131,-0.0573 -0.429,-0.102 l -0.0766,0.0238 -0.0224,0.041 c 0.0218,0.1604 0.0197,0.2381 0.1188,0.447 0.0343,0.0724 0.0911,0.1633 0.1324,0.2319 0.016,0.0266 0.1438,0.2819 0.3571,0.5068 0.3224,0.3398 0.5907,0.5105 0.7918,0.6757 0.5664,0.4837 0.8813,0.7523 0.9445,0.8057 l 1.5577,1.315 c 0.1859,0.1568 0.3421,0.2866 0.6066,0.5378 0.232,0.2202 0.4291,0.4022 0.7404,0.7673 0.1707,0.2001 0.6149,0.7876 0.6485,0.8281 0.2241,0.2696 0.5467,0.6084 0.7838,0.8667 0.2393,0.2606 1.291,1.3764 1.6209,1.7136 0.2352,0.2403 1.527,1.5747 2.4598,2.2921 0.3835,0.2949 0.7744,0.5985 1.6485,1.0132 0.1432,0.0679 0.869,0.3887 1.4636,0.6089 0.3899,0.1393 0.7169,0.2488 0.9811,0.3283 0.1113,0.0336 0.2595,0.0806 0.3731,0.1051 0.1056,0.0226 0.249,0.0373 0.3557,0.0534 0.0733,-0.0932 0.188,-0.2308 0.3423,-0.4837 0.0877,-0.1438 0.1972,-0.3401 0.279,-0.4874 0.6895,-1.2418 1.0477,-2.0183 1.3474,-2.501 0.0219,-0.0352 0.2562,-0.4352 0.4952,-0.6651 0.0871,-0.0837 0.1335,-0.1114 0.2831,-0.1974 0.2334,-0.034 0.3017,-0.0384 0.51,0.1204 0.1348,0.096 0.217,0.2145 0.2464,0.3557 0.0591,0.2835 8e-4,0.6016 -0.2192,1.1373 -0.1,0.2434 -0.3647,0.7975 -0.7418,1.589 -0.0399,0.0839 -0.6581,1.3419 -0.7391,1.7046 -0.0623,0.2792 0.0116,0.4079 0.0758,0.5671 0.1041,0.2578 0.1463,0.3748 0.2044,0.7676 0.0643,0.3851 0.0804,0.7692 0.0484,1.1524 -0.0184,0.2205 -0.0419,0.5824 -0.3253,1.0575 -0.0535,0.0897 -0.2757,0.4536 -0.6524,0.8147 -0.0193,0.0185 -0.2573,0.2361 -0.4136,0.3392 -0.0791,0.0522 -0.1881,0.1172 -0.2739,0.1576 -0.0596,0.0281 -0.1468,0.0474 -0.2057,0.0769 -0.1931,0.097 -0.2821,0.2412 -0.4598,0.5545 -0.6866,1.2104 -2.2207,4.5943 -3.9865,8.3774 -2.2982,4.9237 -3.5078,7.5151 -3.6287,7.7742 0.0431,0.1841 0.615,2.774 0.9256,3.667 0.0201,0.0578 0.0795,0.3119 0.2767,0.5462 0.1461,0.1736 0.1992,0.112 0.3756,0.2548 0.0791,0.064 0.1997,0.2324 0.3085,0.4043 0.0201,0.0317 0.2383,0.3866 0.3356,0.6701 0.0502,0.1465 0.1204,0.5762 0.1269,0.6064 0.0378,0.1759 0.0843,0.2841 0.2416,0.4537 0.0235,0.0253 0.2467,0.2459 0.5335,0.4378 0.1914,0.1365 0.3971,0.2351 0.617,0.2956 0.1804,0.0497 0.7424,0.0973 0.926,0.1332 0.6196,0.1212 0.8954,0.3467 1.5231,0.4136 0.342,0.0365 0.5429,-0.002 0.9802,-0.0674 0.074,-0.011 1.1128,-0.183 1.4869,-0.1736 0.1968,5.3e-4 0.3511,0.0293 0.4632,0.0861 0.0527,0.0268 0.1217,0.0943 0.182,0.1509 0.063,0.1262 0.0962,0.2565 0.0995,0.3909 0.002,0.0793 -0.0528,0.7517 -0.0552,0.7913 z M 91.93161,143.59134 c 2.65e-4,0.0375 -0.02477,0.51169 0.09934,0.74279 0.08404,0.15651 0.24017,0.25721 0.414059,0.2934 0.13326,0.0278 0.822,0.0422 1.360681,-0.0371 0.2012,-0.0177 0.374028,-0.0614 0.518459,-0.1313 0.164211,-0.0795 0.254871,-0.23659 0.36267,-0.48819 0.10306,-0.24051 0.180199,-0.49651 0.261461,-1.0136 0.04494,-0.28601 0.26792,-2.1546 0.380159,-2.86951 0.04715,-0.3003 0.2995,-1.8004 0.56633,-2.9868 1.26516,-5.62539 3.589501,-12.0652 6.800351,-17.97629 4.3363,-7.9828 9.5923,-13.267 10.8701,-14.5587 0.5182,-0.5238 2.593,-2.6285 5.4131,-4.999432 0.3059,-0.257151 1.6856,-1.413751 3.1385,-2.473142 1.7881,-1.303819 2.5861,-1.70751 3.7238,-2.392209 0.1568,-0.09439 0.3637,-0.223941 0.5201,-0.31894 0.3277,-0.198961 0.7647,-0.46392 1.0951,-0.658381 0.4543,-0.267499 1.0635,-0.61854 1.5227,-0.877599 2.4019,-1.354889 4.9221,-2.504699 7.1204,-3.37325 2.2009,-0.8696 5.7821,-2.144551 8.9995,-2.93534 1.6311,-0.400899 3.7638,-0.758 4.709,-0.924539 0.5368,-0.08845 0.9194,-0.155861 1.1478,-0.202231 0.1685,-0.0342 0.4769,-0.08802 0.8128,-0.279879 0.1387,-0.07921 0.2113,-0.134062 0.2993,-0.344631 0.0639,-0.152939 0.0925,-0.316261 0.0856,-0.4899 0.0612,-0.62757 0.0828,-1.110191 0.0648,-1.4479 -0.0171,-0.164571 -0.0351,-0.27255 -0.0539,-0.323969 -0.011,-0.03032 -0.0342,-0.06709 -0.0489,-0.09585 -0.0586,-0.0487 -0.074,-0.06578 -0.164,-0.09698 -0.1254,-0.03339 -0.2095,-0.05246 -0.2524,-0.05721 -0.1957,-0.02162 -0.494,0.0049 -0.9822,0.06839 -1.8019,0.234008 -2.7502,0.35755 -2.8449,0.370668 -0.8531,0.1182 -1.7028,0.267732 -2.8245,0.513382 -1.7773,0.389228 -4.4676,0.959289 -8.7454,2.505019 -0.1954,0.07059 -2.3381,0.86605 -3.8739,1.50054 -1.2376,0.511259 -1.4764,0.639979 -2.4196,1.147849 -0.2975,0.1602 -2.3612,1.316781 -2.9415,1.66333 -0.1891,0.11299 -0.4366,0.27155 -0.6237,0.387932 -0.1871,0.11638 -0.4366,0.271558 -0.6237,0.38794 -1.0598,0.660329 -1.6835,1.04825 -1.8711,1.163788 -0.414,0.254921 -0.9166,0.551331 -1.6742,0.989352 -0.0989,0.05719 -0.1963,0.117049 -0.292,0.17957 -0.1062,0.0595 -0.2573,0.120279 -0.3671,0.172889 -0.0317,0.01519 -0.3469,0.17068 -0.9457,0.466489 -0.0723,0.03283 -0.1701,0.07404 -0.2455,0.09914 -0.1246,0.04155 -0.3653,0.12047 -0.6542,0.05811 -0.0617,-0.01336 -0.2855,-0.08907 -0.389,-0.16161 -0.151,-0.14029 -0.2429,-0.23024 -0.2757,-0.26987 -0.0472,-0.05709 -0.1455,-0.196209 -0.1905,-0.317809 -0.0244,-0.06577 -0.0624,-0.25446 -0.0526,-0.464701 0.001,-0.03021 0.0192,-0.312248 0.1453,-0.587118 0.0571,-0.12446 0.1064,-0.165212 0.2341,-0.31341 0.2318,-0.26316 0.4726,-0.517401 0.7226,-0.762701 0.7281,-0.714571 0.9592,-0.844619 1.9911,-1.593929 0.3662,-0.268801 0.6311,-0.455901 0.7947,-0.561311 0.1871,-0.120579 0.4457,-0.266761 0.6367,-0.38108 l 2.5468,-1.524201 c 1.3206,-0.791869 2.0163,-1.207579 2.087,-1.247129 0.6521,-0.36462 2.0109,-0.992079 3.3784,-1.594599 2.0038,-0.88342 3.6913,-1.573612 5.0626,-2.070611 1.0906,-0.39524 1.7362,-0.563311 3.1858,-0.91423 5.1738,-1.21507 8.6269,-2.007201 10.3594,-2.376329 0.0671,-0.01431 1.009,-0.207481 1.3475,-0.26453 0.1592,-0.02684 0.3731,-0.05324 0.5318,-0.08231 0.307,-0.05428 0.5212,-0.10794 0.6426,-0.161028 0.0473,-0.02069 0.1062,-0.05683 0.1517,-0.08121 0.0664,-0.0904 0.0864,-0.11617 0.125,-0.25092 0.0365,-0.127788 0.0687,-0.302559 0.0914,-0.433509 0.054,-0.422481 0.0824,-0.644861 0.0852,-0.667091 0.0222,-0.17543 0.0641,-0.407739 0.083,-0.583568 0.0131,-0.122642 0.022,-0.320321 0.0199,-0.493001 -5.3e-4,-0.05391 -0.0131,-0.137361 0.0151,-0.26915 l -0.0176,-0.08423 -0.0699,-0.09812 -0.0705,-0.04191 c -0.01,-0.0013 -0.1259,-0.02008 -0.1934,-0.01355 -0.0588,0.0057 -0.1355,0.0254 -0.194,0.03375 -0.1739,0.02482 -0.4075,0.04362 -0.5819,0.06499 -0.6534,0.08014 -1.7908,0.271579 -3.2423,0.566352 -2.8261,0.580218 -5.6327,1.238887 -8.4197,1.976009 -0.4652,0.123071 -6.5287,1.74771 -9.1838,2.883281 -0.4543,0.19431 -4.5279,2.006809 -8.8314,4.434848 -0.4092,0.230909 -1.6345,0.928851 -2.7012,1.58651 -1.1774,0.725961 -2.2065,1.42771 -2.3222,1.503471 -0.809,0.486579 -1.5886,1.01414 -2.3389,1.582679 -1.0349,0.78427 -1.2089,0.9851 -1.9709,1.6911 -0.7155,0.662811 -1.4467,1.3081 -2.1937,1.935891 -2.1941,1.905521 -5.0015,4.592029 -6.9469,6.750878 -1.9159,2.1264 -4.552221,5.5279 -5.918821,7.4828 -1.069361,1.5296 -2.634149,3.869 -4.812141,7.9954 -1.011168,1.9157 -2.164138,4.1772 -3.059189,6.5407 -0.703519,1.8577 -2.22573,6.5923 -2.97216,9.4769 -0.512421,1.9801 -1.068001,5.2146 -1.438478,8.054 -0.04962,0.3803 -0.09647,0.8899 -0.149091,1.2698 -0.03054,0.2204 -0.08387,0.5124 -0.117011,0.7324 -0.03773,0.2509 -0.128731,0.9427 -0.158409,1.2584 -0.01693,0.18 -0.02871,0.4208 -0.04732,0.6006 -0.0077,0.0741 -0.02371,0.1722 -0.03163,0.2462 -0.0073,0.0681 -0.01585,0.159 -0.01937,0.2274 -0.0011,0.0218 -0.01773,0.3417 0.0382,0.4356 0.01794,0.0301 0.05976,0.0853 0.146751,0.0959 0.167359,0.0203 1.179891,-0.0225 1.685509,-0.0347 0.130562,-0.003 0.317162,-0.005 0.55975,-0.005 0.02585,-0.002 0.06003,-0.009 0.08509,-0.0154 0.213709,-0.0571 0.276752,-0.1213 0.41906,-0.257 0.06385,-0.1723 0.08958,-0.238 0.129652,-0.4409 0.01032,-0.0523 0.09555,-0.5779 0.255698,-1.5769 0.25772,-1.5781 0.67482,-3.7779 1.152501,-6.2913 0.435999,-2.294 0.971849,-5.2537 1.346341,-6.5343 0.112889,-0.3861 0.754279,-2.2932 1.308489,-3.8038 0.138969,-0.3787 0.69488,-1.895 1.47634,-3.7548 0.383649,-0.913 0.508849,-1.2214 0.92818,-1.9955 0.474599,-0.8681 0.770839,-1.411 0.888658,-1.6285 0.106043,-0.1957 0.247412,-0.4567 0.353441,-0.6524 l 1.0603,-1.9574 c 0.106031,-0.1957 0.240569,-0.4606 0.353441,-0.6525 0.107849,-0.1833 0.265279,-0.4194 0.380859,-0.598 0.197821,-0.3056 0.463302,-0.7121 0.66692,-1.0139 0.274992,-0.4118 0.545621,-0.7695 0.811831,-1.0729 0.05212,-0.0594 0.909839,-0.995 1.103699,-1.1315 0.26481,-0.1864 0.88421,-0.353 1.28711,-0.1451 0.0542,0.028 0.3427,0.2168 0.4717,0.387 0.1032,0.1361 0.1787,0.3503 0.1982,0.4459 0.0208,0.102 0.0356,0.2945 -0.0288,0.5197 -0.1351,0.3842 -0.2069,0.5862 -0.2153,0.6059 -0.032,0.0758 -0.0849,0.172 -0.1208,0.246 -0.0359,0.0739 -0.0853,0.1718 -0.1183,0.247 -0.0299,0.0682 -0.0632,0.1618 -0.092,0.2305 -0.0421,0.1001 -0.0962,0.2347 -0.146,0.3312 -0.0225,0.0435 -0.0598,0.0973 -0.0836,0.14 -0.0316,0.0567 -0.0698,0.1344 -0.0997,0.1919 -0.0299,0.0576 -0.0696,0.1344 -0.0997,0.1919 -0.51319,0.9824 -0.51399,0.9823 -1.0585,1.9477 -0.931183,1.6433 -1.446695,2.5572 -1.546564,2.7418 -0.287401,0.5313 -1.47564,2.8639 -1.81873,3.5925 -0.52691,1.1189 -1.246651,3.1679 -2.093601,5.8186 -0.118678,0.3714 -0.394819,1.239 -0.72763,2.4953 l -0.677691,2.6188 c -0.04617,0.1959 -0.09921,0.4589 -0.139729,0.656 -0.32281,1.6603 -0.520279,2.6988 -0.59241,3.1155 -0.111419,0.6436 -0.285049,1.6112 -0.42667,3.2382 -0.01582,0.182 -0.03093,0.425 -0.04642,0.607 -0.01749,0.2056 -0.04703,0.4791 -0.06421,0.6847 -0.01328,0.1588 -0.03162,0.3707 -0.039,0.53 -0.0031,0.2105 -0.01008,0.4017 -0.02101,0.5736 -0.0055,0.0858 -0.01193,0.2002 -0.01704,0.286 z m 2.166469,12.18789 c -0.0046,-0.39789 -0.0011,-0.66399 -0.04928,-1.32539 l -0.118261,-1.42421 -0.17734,-2.13629 -5.978451,0.0181 c -1.438769,0.041 -2.284909,0.0691 -2.53842,0.0847 -0.264261,0.0161 -0.61558,0.0521 -0.879369,0.0744 -0.132429,0.0701 -0.24873,0.1179 -0.368829,0.3368 -0.03559,0.0649 -0.172061,0.3381 -0.228682,0.7037 -0.01,0.0646 -0.0945,0.727 0.0048,1.3063 0.03592,0.2095 0.08529,0.4751 0.28702,0.8002 0.07266,0.1171 0.180527,0.2518 0.44686,0.3224 0.262628,0.0696 2.148239,0.3321 2.686738,0.4051 2.15611,0.2786 3.35394,0.4333 3.59351,0.4643 0.116742,0.015 1.868021,0.2414 2.336562,0.2883 0.294468,0.0294 0.688149,0.0571 0.983099,0.0816 z m 14.255441,36.8101 c 0.0789,0.0764 0.898,0.83791 1.415,1.68061 0.0682,0.1112 0.4177,0.6798 0.5411,1.18669 0.0791,0.32501 0.0591,0.61561 -0.1325,0.94641 -0.1809,0.31229 -0.4834,0.6047 -0.6639,0.7887 -0.3813,-0.3239 -0.75,-0.66111 -1.1062,-1.0115 -0.493,-0.4851 -0.4815,-0.4987 -0.9137,-1.03871 0.0747,-0.0802 0.4032,-0.425 0.4867,-0.54489 0.0416,-0.0598 0.0604,-0.11071 0.0832,-0.19081 -0.0142,-0.1064 -0.0313,-0.19019 -0.1482,-0.3258 -0.0186,-0.0215 -0.1054,-0.12369 -0.2205,-0.17989 -0.2586,-0.12631 -0.4516,0.0162 -0.5662,0.10309 -0.2244,0.16831 -0.3551,0.3522 -0.3923,0.55191 -0.0497,0.2672 0.1296,0.74159 0.3423,1.3149 0.2614,0.7049 0.4816,1.20379 0.6589,2.0446 0.008,0.0398 0.1103,0.4553 0.0325,0.81309 -0.0474,0.21821 -0.1719,0.554 -0.529,0.9827 -0.0351,0.0421 -0.4383,0.5071 -0.8116,0.73741 -0.5156,0.31819 -0.8904,0.3147 -1.5142,0.0399 -0.0646,-0.0284 -0.1494,-0.0694 -0.2119,-0.10239 -0.0919,-0.0485 -0.2125,-0.1172 -0.3005,-0.1724 -0.0839,-0.0527 -0.4182,-0.27091 -0.7904,-0.59811 -0.2128,-0.1872 -0.7021,-0.64659 -1.2537,-1.41349 -0.0839,-0.1167 -0.4323,-0.59 -0.6899,-1.26091 -0.0162,-0.0422 -0.1962,-0.47889 -0.1827,-0.8856 0.001,-0.0392 0.003,-0.2021 0.0722,-0.38599 0.0175,-0.0465 0.101,-0.2575 0.2273,-0.4421 0.0367,-0.0538 0.089,-0.1232 0.1305,-0.1734 0.0833,-0.10091 0.2015,-0.22941 0.2928,-0.32321 0.2,-0.19069 0.3553,-0.3359 0.466,-0.43549 0.1363,0.154 0.3237,0.3546 0.4546,0.51329 0.1239,0.1503 0.278,0.35961 0.3954,0.51501 0.0484,0.0639 0.4798,0.64219 0.9662,1.2794 -0.0565,0.057 -0.1298,0.1352 -0.1884,0.19009 -0.0895,0.0839 -0.2189,0.1846 -0.3085,0.26841 -0.084,0.0805 -0.1499,0.151 -0.1975,0.21179 -0.0701,0.0896 -0.1862,0.2336 -0.0996,0.444 0.0733,0.1778 0.33191,0.47661 0.60121,0.4802 0.2055,0.003 0.40109,-0.1514 0.5879,-0.3521 0.0195,-0.0209 0.2291,-0.2394 0.303,-0.48639 0.053,-0.1774 0.0311,-0.31781 -0.0522,-0.6149 -0.1187,-0.4235 -0.3539,-1.0874 -0.5501,-1.6711 -0.126,-0.37011 -0.2004,-0.5876 -0.2232,-0.65271 -0.0582,-0.17659 -0.0976,-0.3138 -0.1183,-0.4115 -0.0475,-0.22479 -0.0659,-0.5005 -0.0255,-0.76559 0.0645,-0.4224 0.3129,-0.8401 0.7404,-1.2168 0.0729,-0.0643 0.4174,-0.36271 0.8314,-0.5044 0.191,-0.0654 0.374,-0.0921 0.6717,-0.0372 0.646,0.1191 1.2761,0.4875 1.8904,1.10519 z m 45.3507,31.9581 c -0.023,-0.7079 -0.0367,-1.1504 -0.0409,-1.32739 -0.003,-0.1119 -0.004,-0.2985 -0.005,-0.5597 -0.0215,-0.257 -0.1734,-0.4006 -0.2723,-0.5043 -0.2155,-0.0798 -0.238,-0.0895 -0.441,-0.1295 -0.0522,-0.0103 -0.5779,-0.0955 -1.577,-0.2558 -1.578,-0.25771 -3.1495,-0.5553 -6.2912,-1.15251 -2.495,-0.4684 -4.053,-0.7679 -4.674,-0.89869 -1.1083,-0.2334 -1.5268,-0.3277 -2.7353,-0.73131 -4.1345,-1.38069 -7.3505,-2.75509 -8.1328,-3.1398 -0.1405,-0.0692 -1.5179,-0.8153 -4.1321,-2.23849 -0.7846,-0.421 -1.2196,-0.65661 -1.3049,-0.7068 -0.7559,-0.4835 -1.2932,-0.8328 -1.612,-1.0478 -0.1115,-0.0753 -0.5673,-0.3681 -1.073,-0.8118 -0.0594,-0.0521 -0.9949,-0.9099 -1.1314,-1.1038 -0.0213,-0.0302 -0.2037,-0.33241 -0.2342,-0.7004 -0.0265,-0.3211 0.0202,-0.51821 0.2122,-0.7769 0.1247,-0.1488 0.2127,-0.2425 0.2639,-0.28141 0.049,-0.0372 0.1238,-0.0731 0.1788,-0.1006 0.0792,-0.0397 0.2061,-0.1052 0.4273,-0.11659 0.2159,-0.0112 0.3562,0.0195 0.5337,0.0847 0.1997,0.0734 0.8494,0.35831 1.2992,0.5681 0.0562,0.0262 0.1325,0.0583 0.1873,0.0874 0.0432,0.0229 0.0972,0.0598 0.1399,0.0836 0.0567,0.0316 0.1344,0.0698 0.1919,0.0996 0.6956,0.36231 1.1041,0.5765 1.2257,0.64271 2.3141,1.30819 3.5326,1.99549 3.6557,2.0621 0.2778,0.15029 1.6827,0.87319 2.8145,1.4352 0.1911,0.0949 0.9501,0.4908 1.9429,0.8808 0.468,0.18389 1.5722,0.58279 3.163,1.11129 1.2639,0.4232 2.3235,0.75461 3.1787,0.99381 0.2314,0.0647 1.6257,0.43059 2.3235,0.6112 0.5255,0.13599 0.8726,0.24299 1.7587,0.42509 1.0353,0.21471 2.0738,0.41221 3.1154,0.59241 1.2874,0.22279 2.0994,0.32749 3.2383,0.4267 0.1819,0.0158 0.425,0.0309 0.607,0.0464 0.2055,0.0175 0.479,0.047 0.6845,0.0642 0.159,0.0133 0.3708,0.0316 0.5301,0.039 0.2297,0.004 0.4209,0.0113 0.5736,0.021 0.0274,0.002 0.4124,0.0233 0.5496,0.0149 0.2333,-0.0185 0.3931,-0.0509 0.4792,-0.0972 0.3344,-0.1796 0.3228,-0.5623 0.3169,-0.8943 0.007,-0.5188 -0.04,-0.9399 -0.1413,-1.2634 -0.005,-0.017 -0.0456,-0.1935 -0.1848,-0.3049 -0.2312,-0.185 -0.721,-0.3303 -0.9135,-0.3742 -0.3439,-0.0783 -1.3964,-0.2013 -1.7464,-0.2445 -2.2386,-0.2764 -4.4682,-0.6959 -7.3707,-1.4832 -0.3353,-0.0909 -3.3544,-0.9345 -6.6006,-2.1736 -0.4403,-0.168 -4.4277,-1.6765 -8.5689,-3.9261 -2.3657,-1.2851 -4.6332,-2.7537 -6.5159,-4.088 -0.6952,-0.4928 -3.4891,-2.4788 -6.5993,-5.3908 -3.0372,-2.8438 -5.7875,-5.9876 -7.102,-7.6001 -0.7373,-0.9044 -1.6884,-2.138 -2.3525,-3.0975 -0.8964,-1.2952 -1.222,-1.9195 -1.8538,-2.9692 -0.1661,-0.276 -1.8889,-3.0077 -3.1688,-5.6088 -3.23819,-6.5809 -4.906801,-12.9867 -5.379831,-15.3853 -0.06974,-0.3536 -0.421669,-2.3042 -0.64053,-3.5464 -0.08099,-0.4596 -0.165118,-1.1193 -0.449418,-1.4895 -0.0447,-0.0582 -0.08088,-0.0976 -0.188302,-0.1561 -0.1129,-0.0486 -0.175918,-0.0748 -0.18905,-0.0786 -0.09205,-0.0264 -0.475379,-0.0587 -0.634558,-0.0706 -0.64122,-0.0363 -1.041942,-0.0502 -1.202092,-0.0417 -0.0492,0.003 -0.216008,0.0145 -0.32399,0.054 -0.03032,0.011 -0.0671,0.0342 -0.09586,0.0488 -0.0548,0.066 -0.06579,0.074 -0.097,0.1639 -0.01273,0.0367 -0.05299,0.2138 -0.05726,0.2524 -0.02703,0.2447 0.0177,0.5917 0.06849,0.9822 0.220851,1.7072 0.344401,2.6555 0.37065,2.8449 0.09851,0.7109 0.237029,1.5626 0.513379,2.8245 0.375491,1.6854 0.661421,2.8846 0.857782,3.5978 0.35864,1.3027 1.09619,3.6228 1.64719,5.1477 0.07058,0.1953 0.707398,1.9541 1.500539,3.8739 0.46014,1.1138 0.576519,1.3585 1.14786,2.4196 0.0801,0.1487 1.143501,2.0711 1.66333,2.9414 0.31034,0.4989 0.56896,0.9147 0.775869,1.2474 l 1.163802,1.8712 c 0.1108,0.18 0.2584,0.42 0.3667,0.6015 0.08,0.1342 0.184,0.3147 0.2625,0.4497 0.0271,0.0467 0.063,0.1091 0.09,0.1558 0.1711,0.2959 0.2612,0.4517 0.2702,0.4673 0.0457,0.0791 0.1056,0.1764 0.1795,0.2919 0.0595,0.1061 0.1138,0.2606 0.1729,0.367 0.1086,0.1959 0.3025,0.428 0.4049,0.6272 0.0421,0.0819 0.0819,0.1989 0.1129,0.2856 0.0267,0.0747 0.0594,0.1752 0.0804,0.2516 0.0355,0.1293 0.1123,0.3769 0.0376,0.669 -0.0657,0.1958 -0.1236,0.3295 -0.1737,0.4011 -0.1403,0.151 -0.2302,0.2429 -0.2698,0.2757 -0.1077,0.0884 -0.2136,0.1519 -0.3178,0.1905 -0.1316,0.0488 -0.348,0.0581 -0.4647,0.0526 -0.0907,-0.004 -0.3398,-0.0317 -0.5872,-0.1452 -0.0929,-0.0426 -0.1135,-0.0619 -0.2103,-0.1454 -0.0309,-0.0266 -0.0722,-0.0621 -0.1031,-0.0888 -0.2631,-0.2318 -0.5173,-0.4727 -0.76265,-0.7226 -0.80387,-0.8192 -1.144349,-1.3719 -1.593911,-1.9911 -0.321519,-0.448 -0.50863,-0.7129 -0.561308,-0.7947 -0.120592,-0.1872 -0.266742,-0.4457 -0.381061,-0.6367 -0.6859,-1.1461 -1.066951,-1.7828 -1.143161,-1.9102 l -1.62823,-2.7237 c -0.36462,-0.6521 -1.06739,-2.1818 -1.594578,-3.3784 -0.883422,-2.0037 -1.57363,-3.6912 -2.0706,-5.0625 -0.352301,-0.9721 -0.478232,-1.4759 -0.610952,-1.9756 -0.0961,-0.3618 -0.21522,-0.8464 -0.303289,-1.2102 -0.12504,-0.5165 -1.933321,-8.2804 -2.376321,-10.3595 -0.01431,-0.0671 -0.184719,-0.8735 -0.264589,-1.3475 -0.02683,-0.1591 -0.05322,-0.373 -0.0823,-0.5318 -0.02773,-0.2463 -0.08141,-0.4604 -0.161028,-0.6425 -0.02069,-0.0473 -0.05686,-0.1062 -0.08122,-0.1517 -0.0904,-0.0663 -0.11616,-0.0865 -0.250909,-0.125 -0.12777,-0.0366 -0.302509,-0.0687 -0.433451,-0.0915 -0.03313,-0.006 -0.50028,-0.0639 -0.66706,-0.0851 -0.17544,-0.0222 -0.407771,-0.0641 -0.583599,-0.0831 -0.09811,-0.0105 -0.295651,-0.0223 -0.493001,-0.02 -0.06739,7.9e-4 -0.137308,0.0131 -0.269158,-0.015 l -0.08426,0.0176 -0.09808,0.07 -0.04193,0.0705 c -0.02553,0.1923 -0.0071,0.1953 0.02027,0.3873 0.06367,0.6368 0.151291,1.2698 0.262882,1.8989 0.294248,1.659 1.182089,5.7791 1.798759,8.23 0.95813,3.8082 1.86301,6.9481 2.71463,9.4196 0.43474,1.2617 0.659659,1.792 1.46294,3.521 0.685501,1.4742 1.335791,2.8006 1.950849,3.9794 0.791451,1.5369 1.62446,3.0503 2.498971,4.5399 0.53992,0.9245 1.101469,1.8352 1.6847,2.7322 0.189061,0.2907 0.451681,0.6715 0.641639,0.9616 0.486542,0.8091 1.014111,1.5887 1.582711,2.3389 0.784341,1.0348 0.985049,1.209 1.691115,1.9709 0.66279,0.7154 1.3081,1.4466 1.9358,2.1937 0.10959,0.1261 1.20569,1.3876 2.23839,2.4803 0.5256,0.556 1.9298,2.0391 3.5955,3.6187 0.6484,0.613 1.31131,1.2093 1.98881,1.789 0.3508,0.3002 3.8853,3.2926 7.3338,5.6108 1.0226,0.6875 3.4401,2.2617 7.0726,4.1791 1.9158,1.0111 4.1773,2.1641 6.5407,3.0592 1.3177,0.4991 3.6601,1.278 6.6983,2.1839 2.7183,0.8106 3.9023,1.1521 7.9032,1.7952 1.5615,0.2366 2.538,0.3805 2.9295,0.4315 0.3803,0.0497 0.8899,0.0965 1.2698,0.1491 0.0995,0.0138 1.1904,0.2002 1.9908,0.2754 0.18,0.017 0.4208,0.0287 0.6005,0.0473 0.0741,0.008 0.1722,0.0238 0.2462,0.0316 0.0681,0.007 0.159,0.0159 0.2274,0.0194 0.2279,0.0119 0.3731,-7.9e-4 0.4357,-0.0382 0.0302,-0.0179 0.0853,-0.0597 0.0959,-0.1467 0.004,-0.2268 0.006,-0.3462 0.006,-0.3581 z M 80.75841,158.25364 c 0.02336,0.59129 1.05239,7.02909 2.07782,11.65039 0.728631,3.28371 1.690939,6.52371 2.71517,9.21861 0.186219,0.49 0.622549,1.6338 1.317821,3.2369 0.201599,0.46489 0.478028,1.08139 0.689589,1.5418 0.172979,0.3764 0.867209,1.8825 1.827659,3.7176 0.57217,1.09329 1.917542,3.65149 4.19965,7.0733 1.46677,2.22929 2.894451,4.18249 4.28303,5.8597 0.99487,1.2017 3.375271,3.97189 7.108371,7.5922 1.3469,1.3062 2.9741,2.87959 5.651,4.93859 2.5784,1.98331 5.6933,4.02841 7.6736,5.24381 0.4112,0.25239 4.1194,2.54709 8.5031,4.56299 1.987,0.91381 4.4292,1.90731 8.1831,3.09281 1.4737,0.4654 8.9291,2.835 15.0908,3.3355 0.8807,0.0605 1.6148,0.0839 2.2022,0.07 0.4992,-0.0214 0.8083,-0.0499 0.9271,-0.0856 0.0202,-0.006 0.271,-0.0955 0.366,-0.2081 0.0238,-0.0282 0.123,-0.1519 0.1587,-0.33281 0.0248,-0.17789 0.0184,-0.35179 -0.0195,-0.5217 -0.004,-0.0177 -0.0507,-0.18589 -0.1755,-0.31779 -0.0742,-0.0785 -0.1853,-0.1734 -0.3756,-0.2142 -0.342,-0.0733 -1.2215,-0.0803 -1.7453,-0.10831 -0.433,-0.0268 -0.7935,-0.054 -1.0813,-0.0815 -0.3492,-0.0333 -0.8144,-0.0824 -1.1636,-0.11541 -0.3341,-0.0315 -0.7802,-0.0666 -1.1141,-0.0998 -0.3897,-0.0387 -0.9758,-0.0985 -1.9389,-0.27491 -0.9004,-0.16489 -4.9448,-0.9901 -8.8974,-2.14879 -2.5233,-0.72091 -4.9998,-1.5682 -7.4294,-2.5416 -1.9645,-0.787 -4.2618,-1.89501 -7.5907,-3.74681 -2.0633,-1.1479 -5.7115,-3.15169 -9.9454,-6.36039 -0.3147,-0.2385 -1.5751,-1.1928 -3.0805,-2.4701 -1.1447,-0.9713 -1.5148,-1.3122 -2.4514,-2.2626 -0.3864,-0.39211 -4.6057,-4.7421 -7.469891,-8.0871 -0.72553,-0.8474 -1.999078,-2.34041 -3.38641,-4.43211 -0.28679,-0.43239 -3.118409,-4.7926 -5.305978,-8.91839 -0.515141,-0.97151 -1.742951,-3.24191 -3.049421,-6.6667 -0.459161,-1.20361 -1.506292,-4.03331 -2.590599,-8.1884 -0.83367,-3.2317 -1.467451,-6.1929 -1.90133,-8.88361 -0.2838,-1.7598 -0.298051,-2.1188 -0.44477,-3.5373 -0.0053,-0.0515 -0.06945,-0.82879 -0.130151,-1.0267 -0.01408,-0.0458 -0.04308,-0.1036 -0.06758,-0.1447 -0.0097,-0.0164 -0.09644,-0.18579 -0.265941,-0.2722 -0.11612,-0.0593 -0.234429,-0.0658 -0.36422,-0.0782 -0.06246,-0.006 -0.145928,-0.0146 -0.20864,-0.0142 -0.04158,2.6e-4 -0.215688,0.0163 -0.40015,0.1119 -0.0208,0.0108 -0.25282,0.1065 -0.337709,0.3249 -0.05169,0.133 -0.0467,0.4835 -0.04332,0.569 z m 84.72211,-85.091104 c -0.005,0.096 -0.0142,0.415462 0.13,0.6273 0.0334,0.04903 0.1537,0.19412 0.2971,0.260789 0.1698,0.07896 0.5421,0.119632 1.1169,0.122042 0.6855,0.02381 1.3072,0.06239 1.8654,0.115729 0.3492,0.03338 0.8144,0.08246 1.1637,0.115422 0.3341,0.03153 0.7801,0.06663 1.114,0.09982 0.2113,0.02101 0.493,0.0497 0.7035,0.07684 0.616,0.07937 1.473,0.23303 2.4463,0.433761 0.4584,0.09455 4.598,0.938649 9.0671,2.330648 3.065,0.92636 5.7819,1.93566 8.1507,3.027892 2.5466,1.174239 6.9835,3.60448 9.8497,5.367798 0.466,0.286721 1.0819,0.677971 1.5399,0.97735 0.408,0.26667 0.9466,0.630401 1.3478,0.907092 0.4249,0.29301 0.9869,0.690009 1.405,0.992619 0.3572,0.25863 1.9574,1.435589 3.4924,2.69382 0.2557,0.209651 1.5382,1.256739 2.4979,2.167081 0.8043,0.76291 2.7097,2.77726 3.848,3.989498 0.2274,0.242181 2.728,2.909703 4.4568,4.928603 0.0949,0.1108 1.0433,1.2198 1.8429,2.2606 1.0905,1.4194 2.27,3.2231 3.9362,5.9809 0.412,0.6819 2.2885,3.747 3.8646,6.9672 0.2158,0.441 0.4988,1.0312 0.7046,1.477 0.1464,0.317 0.3359,0.7423 0.4745,1.0628 0.1435,0.3322 0.3292,0.7775 0.4651,1.1128 0.2148,0.52969 0.772,1.94959 1.3235,3.57329 0.4721,1.3902 1.5409,4.65821 2.6017,9.4358 0.6636,2.9662 1.1094,5.4537 1.3375,7.4625 0.0131,0.116 0.1901,2.0977 0.2586,2.32101 0.007,0.0216 0.0971,0.24849 0.2603,0.3708 0.1273,0.0954 0.2336,0.1049 0.4374,0.12439 0.0213,0.002 0.2446,0.0383 0.4279,-0.0216 0.3116,-0.10179 0.4592,-0.2483 0.5185,-0.401 0.0155,-0.0397 0.0381,-0.1534 0.0398,-0.28109 0.004,-0.1632 0.005,-0.25921 0.004,-0.28801 -0.01,-0.2408 -0.0962,-0.79759 -0.2222,-1.5909 -0.4436,-2.79129 -1.4748,-9.0864 -2.8004,-13.85169 -0.6163,-2.21531 -1.4414,-4.8665 -3.0883,-8.6637 -1.0139,-2.338 -3.4591,-7.8568 -8.3958,-14.7695 -0.8694,-1.2175 -2.1779,-3.0566 -4.6918,-5.825812 -2.1631,-2.40769 -4.4344,-4.702969 -6.814,-6.885861 -1.881,-1.725509 -3.8666,-3.351217 -6.6617,-5.29309 -2.5633,-1.807948 -5.2118,-3.47177 -7.9457,-4.991438 -5.4683,-3.039661 -9.6783,-4.785091 -16.5566,-6.738192 -0.625,-0.177469 -7.5619,-2.225058 -12.7527,-2.493989 -0.7435,-0.0517 -1.4177,-0.05448 -2.0228,-0.0083 -0.3759,0.02868 -0.5046,0.03819 -0.7356,0.165791 -0.1382,0.07636 -0.2879,0.271269 -0.3013,0.555209 z m -0.007,3.012982 c -0.0172,0.505479 0.006,0.927248 0.0165,1.68583 0.003,0.25187 -0.003,0.531839 -10e-4,0.559758 0.002,0.02588 0.008,0.06012 0.0146,0.08527 0.0548,0.214302 0.1351,0.295971 0.2524,0.421802 0.1717,0.06572 0.237,0.09214 0.4395,0.134379 0.0782,0.0163 1.4953,0.25899 1.574,0.272711 1.5753,0.274781 3.7705,0.71563 6.2785,1.22047 0.2333,0.04696 4.1995,0.846109 4.6641,0.94923 0.6878,0.144709 1.3062,0.300591 1.8554,0.467619 0.264,0.08031 0.6111,0.20292 0.8719,0.293151 3.7073,1.28262 6.9311,2.637779 8.0982,3.227509 0.1398,0.07064 1.5091,0.83163 4.1077,2.28296 0.8224,0.45507 1.2548,0.695381 1.2971,0.72091 0.0824,0.04963 1.3633,0.90129 1.6006,1.065141 0.3756,0.249539 0.7303,0.524 1.0642,0.823471 0.1177,0.105529 0.9852,0.920538 1.1196,1.115848 0.0627,0.09128 0.2027,0.371391 0.2265,0.702842 0.0231,0.32139 -0.0257,0.51811 -0.2206,0.774748 -0.0272,0.03592 -0.0675,0.08079 -0.0984,0.11362 -0.0485,0.0515 -0.1118,0.1227 -0.1685,0.164811 -0.0495,0.03667 -0.1246,0.07168 -0.18,0.09864 -0.3847,0.187441 -0.7103,0.12079 -1.2196,-0.08731 -0.1158,-0.0473 -0.2296,-0.0998 -0.4525,-0.2134 -0.2147,-0.109461 -0.2838,-0.132699 -0.4387,-0.19967 -0.0997,-0.04313 -0.2338,-0.0987 -0.3297,-0.149601 -0.0432,-0.02291 -0.0966,-0.06082 -0.139,-0.0851 -0.0564,-0.0322 -0.1336,-0.0712 -0.1909,-0.101711 l -0.8074,-0.43416 c -0.4672,-0.251831 -0.7288,-0.405461 -1.3194,-0.747131 -0.7267,-0.42028 -1.3322,-0.77053 -1.8167,-1.05071 -0.2725,-0.15761 -0.6331,-0.372589 -0.9083,-0.52536 -0.4454,-0.24721 -1.0476,-0.561638 -1.499,-0.7977 -0.3837,-0.200649 -1.9205,-1.002318 -2.5806,-1.29413 -0.8969,-0.396549 -3.6594,-1.42353 -6.1554,-2.204238 -0.0805,-0.02519 -1.1325,-0.337341 -1.6205,-0.472311 l -2.6113,-0.705921 c -0.1351,-0.03342 -1.3587,-0.3004 -2.7234,-0.57131 -1.2546,-0.252338 -2.3046,-0.432768 -3.15,-0.541308 -0.3449,-0.04427 -0.9216,-0.102571 -1.73,-0.174932 -0.2053,-0.01971 -0.4785,-0.05215 -0.6839,-0.07155 -0.1587,-0.015 -0.3703,-0.03556 -0.5295,-0.04465 -0.1095,-0.0063 -0.2559,-0.005 -0.3654,-0.01095 -0.1642,-0.01828 -0.3289,-0.03045 -0.4938,-0.03645 -0.2617,-0.01503 -0.4744,0.0016 -0.6381,0.05008 -0.0731,0.02164 -0.1995,0.06847 -0.3074,0.225722 -0.0613,0.08943 -0.1028,0.201109 -0.1176,0.417488 -0.0336,0.94855 0.0404,1.54146 0.222,1.77872 0.143,0.186862 0.65,0.36535 0.6872,0.377931 0.3219,0.10895 0.7286,0.17495 1.3346,0.25903 0.9779,0.135749 3.2824,0.394459 6.4682,1.22071 0.7179,0.18619 3.5952,0.947111 7.0661,2.25238 7.6965,2.89433 12.5824,6.143471 14.6125,7.544731 1.0448,0.721098 3.8273,2.678308 6.6501,5.234813 0.8342,0.75551 4.1777,3.81311 7.7523,8.15951 0.1968,0.2393 0.4571,0.5603 0.6503,0.8026 0.1896,0.2377 0.4401,0.5566 0.6258,0.7974 0.1812,0.2351 0.4203,0.5504 0.5974,0.7886 0.1719,0.2314 0.3983,0.5417 0.5656,0.77639 0.3411,0.47861 1.0088,1.44841 1.6086,2.45931 0.2279,0.3842 0.5171,0.9049 0.7432,1.29 0.0927,0.1578 0.22,0.3661 0.3133,0.5235 0.0774,0.1306 0.7763,1.3045 1.5076,2.6343 0.5358,0.98349 0.9649,1.81189 1.2871,2.48499 2.8153,5.8804 4.6171,12.2378 5.2132,15.4426 0.0659,0.3543 0.3087,1.7753 0.6022,3.5531 0.0887,0.5372 0.1529,1.121 0.4333,1.4941 0.044,0.0587 0.0797,0.0986 0.1865,0.1582 0.006,0.003 0.0688,0.0302 0.1883,0.0806 0.0917,0.0275 0.4746,0.0638 0.6337,0.0775 0.6408,0.0433 1.0414,0.0615 1.2016,0.0548 0.216,-0.009 0.2854,-0.0312 0.4209,-0.0984 0.018,-0.0211 0.0453,-0.0467 0.0598,-0.0703 0.0158,-0.0256 0.0288,-0.0642 0.039,-0.0926 0.0347,-0.125 0.0547,-0.2089 0.0599,-0.2517 0.0297,-0.2444 -0.0169,-0.6407 -0.0577,-0.9828 -0.2145,-1.8043 -0.3279,-2.7539 -0.34,-2.8488 -0.0907,-0.712 -0.1908,-1.4245 -0.4828,-2.83 -0.37,-1.7814 -0.911,-4.4776 -2.4103,-8.7719 -0.0878,-0.2515 -0.2083,-0.5857 -0.2994,-0.836 -0.1567,-0.4306 -0.3673,-1.004 -0.5297,-1.4325 -0.1849,-0.4879 -0.4355,-1.137 -0.6295,-1.6214 -0.4481,-1.1187 -0.6862,-1.6018 -1.1216,-2.4318 -0.7474,-1.38889 -1.2913,-2.3753 -1.6315,-2.95929 -0.4066,-0.6697 -0.6607,-1.0883 -0.7623,-1.2557 -0.6867,-1.1299 -1.0678,-1.7577 -1.1435,-1.8837 -0.3005,-0.5 -0.6369,-1.0918 -0.9713,-1.6847 -0.0505,-0.0896 -0.1093,-0.1875 -0.1763,-0.2939 -0.0583,-0.1069 -0.1119,-0.2613 -0.1689,-0.3689 -0.056,-0.1056 -0.149,-0.2358 -0.2066,-0.3405 -0.0467,-0.085 -0.1036,-0.2013 -0.1435,-0.28981 -0.0539,-0.11959 -0.1217,-0.28109 -0.1654,-0.40489 -0.1022,-0.2891 -0.1908,-0.6518 -0.0173,-1.0222 0.0261,-0.0557 0.0589,-0.1319 0.0947,-0.18191 0.0387,-0.054 0.1061,-0.11309 0.1533,-0.15999 0.0967,-0.0984 0.1932,-0.1752 0.2895,-0.2304 0.0366,-0.0209 0.1943,-0.1061 0.4048,-0.1172 0.0608,-0.003 0.3438,-0.0105 0.6046,0.0739 0.136,0.0467 0.2354,0.0919 0.298,0.1355 0.0335,0.0234 0.0715,0.063 0.1022,0.09 0.0868,0.0765 0.9656,0.8474 1.6023,1.6727 0.7922,1.1019 1.2521,1.7542 1.3796,1.9569 0.8231,1.4097 1.2805,2.193 1.3719,2.3496 1.0943,1.8697 1.6687,2.8545 1.7233,2.9546 0.3575,0.6561 1.0437,2.1934 1.558,3.3956 0.8014,1.8411 1.4733,3.5359 2.0157,5.0845 0.3835,1.0949 0.5446,1.7423 0.8798,3.1956 0.1846,0.8005 0.7752,3.4744 1.7717,8.0217 l 0.4925,2.3627 c 0.1311,0.6741 0.2145,1.1242 0.25,1.3503 0.0252,0.1595 0.0493,0.3735 0.0766,0.5326 0.0423,0.2873 0.0936,0.502 0.154,0.6443 0.0202,0.0475 0.0557,0.1068 0.0796,0.1526 0.0271,0.0203 0.0606,0.0514 0.0903,0.0677 0.0447,0.0246 0.1104,0.0454 0.1593,0.06 0.1274,0.0379 0.3018,0.072 0.4325,0.0961 0.3774,0.0524 0.5994,0.0832 0.666,0.0924 0.1752,0.0241 0.4071,0.0685 0.5827,0.0893 0.098,0.0116 0.2707,0.0256 0.4927,0.0254 0.0674,-1e-4 0.1375,-0.0116 0.269,0.0178 l 0.0845,-0.0166 0.0988,-0.0688 0.0428,-0.0702 c 0.0275,-0.1919 0.009,-0.19519 -0.0162,-0.38739 -0.0568,-0.63741 -0.1376,-1.2713 -0.2423,-1.9016 -0.2763,-1.66211 -1.0212,-5.382 -1.7097,-8.24901 -0.9169,-3.8184 -1.7878,-6.96779 -2.6127,-9.4484 -0.4211,-1.26629 -0.6402,-1.79909 -1.4248,-3.5365 -0.0689,-0.1527 -0.7634,-1.6772 -1.4253,-3.0316 -0.4158,-0.8508 -2.3028,-4.6877 -4.5873,-8.2856 -0.1859,-0.2927 -0.4444,-0.6763 -0.6312,-0.9685 -0.2101,-0.3286 -0.4776,-0.7746 -0.6906,-1.1013 -0.1731,-0.2657 -0.4108,-0.6155 -0.5925,-0.8753 -0.24,-0.3429 -0.7351,-1.0208 -1.2873,-1.6498 -0.6583,-0.7097 -1.2444,-1.3657 -1.7583,-1.9679 -0.1234,-0.1447 -1.3389,-1.6084 -2.4837,-2.8808 -1.7577,-1.950157 -3.4251,-3.651415 -5.0022,-5.103715 -2.8072,-2.58518 -6.6423,-5.444371 -7.4182,-5.99943 -1.2946,-0.92593 -3.2666,-2.289601 -6.738,-4.233931 -0.3379,-0.18923 -4.0594,-2.28985 -6.9214,-3.475781 -2.0725,-0.858779 -4.5211,-1.636059 -6.0466,-2.12639 -3.8846,-1.248569 -5.0842,-1.553459 -7.8921,-2.076289 -1.1517,-0.214429 -2.5965,-0.45294 -4.3344,-0.715499 -0.3798,-0.05372 -0.8888,-0.10599 -1.2681,-0.162701 -0.2201,-0.03291 -0.5115,-0.0894 -0.7312,-0.124899 -0.4593,-0.07498 -0.8781,-0.132342 -1.2566,-0.172061 -0.1797,-0.01886 -0.4205,-0.03327 -0.6,-0.05383 -0.3255,-0.0469 -0.5583,-0.06772 -0.6985,-0.06247 -0.1147,-0.01339 -0.2033,0.01431 -0.2655,0.08305 -0.0224,0.02468 -0.0299,0.04848 -0.0425,0.102531 z M 76.85298,153.03863 c -0.0145,-0.3308 -0.02196,-0.36769 -0.01617,-0.73559 0.0031,-0.3468 0.0048,-0.53941 0.0052,-0.57801 0.0047,-0.3028 2.64e-4,-0.5041 -0.01339,-0.6039 -0.0064,-0.0466 -0.05732,-0.21209 -0.08713,-0.3014 -0.417179,-0.0272 -0.79666,-0.0427 -1.138481,-0.0464 -0.194019,-0.002 -0.452757,0.004 -0.646758,0.002 -0.19572,-0.002 -0.45652,-0.0125 -0.652161,-0.018 -1.02661,-0.0284 -2.56708,-0.0727 -5.13453,-0.0643 -0.198599,5.3e-4 -2.78369,-0.004 -3.970629,0.1007 -0.298741,2e-4 -0.56265,0.0354 -0.79176,0.1056 -0.06672,0.0205 -0.151331,0.0601 -0.216191,0.0859 l -0.03464,0.0514 0.0024,0.0566 c 0.03419,0.0373 0.07409,0.0932 0.114001,0.1243 0.04608,0.0359 0.118239,0.0683 0.171339,0.0927 0.09237,0.0425 0.220231,0.0884 0.316409,0.1213 0.09406,0.0323 0.476819,0.1433 0.96269,0.2484 1.395661,0.3018 2.810142,0.5136 5.635572,0.9295 0.255169,0.0376 0.596318,0.0817 0.850998,0.1227 0.232431,0.0374 0.54049,0.0981 0.77263,0.1374 0.219991,0.0372 0.51362,0.0849 0.734262,0.1181 0.658698,0.086 1.206259,0.1663 1.64266,0.2409 0.214998,0.0367 0.80681,0.1473 1.079309,0.1564 0.07154,0.002 0.17172,-0.0109 0.284859,-0.0287 l 0.06156,-0.0418 c 0.0177,-0.041 0.04859,-0.0932 0.05903,-0.1366 0.0098,-0.0407 0.0062,-0.0975 0.0089,-0.1393 z m 83.33134,76.37841 c 0.0389,0.26159 0.1225,0.43509 0.2506,0.52059 0.2093,0.1396 1.1871,0.1401 1.2499,0.14191 0.1425,0.004 0.634,0.0272 0.9464,-0.0869 0.241,-0.0881 0.3378,-0.2184 0.4569,-0.3412 0.058,-0.13101 0.0747,-0.16531 0.1099,-0.3409 0.004,-0.0212 0.0479,-0.32211 0.0498,-0.4304 0.0191,-0.26241 -0.0301,-0.4689 -0.1476,-0.6196 -0.2239,-0.28711 -0.6611,-0.37501 -0.9731,-0.3678 -0.4252,0.0264 -0.7283,0.0517 -0.9092,0.0759 -0.1963,0.0226 -0.3552,0.0572 -0.4767,0.1039 -0.1518,0.0525 -0.2738,0.1369 -0.3658,0.25321 -0.09,0.1138 -0.1639,0.28709 -0.1958,0.54639 -0.0132,0.10821 -0.0253,0.2741 0.005,0.54491 z m 0.005,5.2623 c 0.005,1.3018 -0.037,1.82209 -0.052,2.6031 -0.0537,2.57279 -0.0538,4.7161 -5.3e-4,6.4299 0.003,0.097 0.0504,1.4575 0.1289,1.9362 0.0262,0.1599 0.0486,0.2282 0.1358,0.4426 l 0.0513,0.0347 0.0566,-0.002 c 0.0396,-0.0373 0.0992,-0.081 0.1322,-0.1244 0.033,-0.0434 0.0621,-0.1113 0.0847,-0.161 0.0364,-0.0797 0.0772,-0.1896 0.1062,-0.2723 0.0344,-0.0983 0.1522,-0.4985 0.2634,-1.0068 0.3053,-1.3949 0.7216,-4.2228 0.9296,-5.6355 0.0376,-0.2551 0.0817,-0.5963 0.1227,-0.851 0.0374,-0.2324 0.0981,-0.5404 0.1374,-0.7725 0.0372,-0.22 0.085,-0.5137 0.1181,-0.7342 0.0577,-0.3835 0.1193,-0.8972 0.179,-1.2804 0.0388,-0.2488 0.1016,-0.5787 0.1424,-0.8273 0.0437,-0.2666 0.1117,-0.5448 0.0473,-0.8991 l -0.0418,-0.0617 c -0.0366,-0.0161 -0.0833,-0.0437 -0.1221,-0.0537 -0.0449,-0.0116 -0.1076,-0.0131 -0.1539,-0.0142 -0.0494,-0.001 -0.1151,0.005 -0.1644,0.007 -0.1998,0.009 -0.2856,0.0135 -0.5712,0.009 l -0.8669,-0.008 c -0.2811,0.006 -0.349,0.0158 -0.6162,0.1031 -0.033,0.5117 -0.0405,0.9106 -0.0467,1.1385 z m 3.109,-8.5247 c 0.157,-0.11211 0.2532,-0.1801 0.3224,-0.4468 0.0312,-0.12001 0.0963,-0.52791 0.1953,-1.22391 0.2624,-1.823 0.4963,-3.6499 0.6962,-5.2158 0.1366,-1.05449 0.2185,-1.71389 0.2458,-1.9783 0.0366,-0.35399 0.0713,-0.82729 0.1019,-1.18189 -0.6631,0.004 -0.6641,-5.3e-4 -1.3253,0.0493 -0.7596,0.0631 -1.2343,0.10249 -1.4242,0.1182 -0.0712,0.006 -0.7833,0.0651 -2.1362,0.1774 8e-4,0.71049 -0.0186,4.9746 0.0516,7.10499 0.014,0.4235 0.0256,0.98871 0.0512,1.41181 0.0159,0.2642 0.0521,0.6156 0.0744,0.8794 0.0609,0.1094 0.0983,0.1727 0.1121,0.1898 0.0361,0.0447 0.1121,0.11559 0.2247,0.17909 0.0894,0.0504 0.3451,0.1651 0.6483,0.21821 0.0671,0.0117 0.6906,0.1206 1.3616,0.006 0.419,-0.0718 0.5003,-0.1269 0.8002,-0.287 z m -4.3534,-141.485822 c -0.002,-2.131531 0.0186,-4.97459 -0.0517,-7.104992 -0.014,-0.42359 -0.0256,-0.98874 -0.0512,-1.411779 -0.016,-0.264261 -0.0522,-0.61553 -0.0745,-0.87933 -0.07,-0.132432 -0.1191,-0.246221 -0.3366,-0.368879 -0.2218,-0.125111 -0.5281,-0.22039 -0.9847,-0.260361 -0.3986,-0.03488 -1.437,-0.04918 -1.9555,0.42127 -0.1413,0.128198 -0.1758,0.25759 -0.2195,0.498991 -0.0289,0.160488 -0.0978,0.589949 -0.1682,1.074079 -0.1523,1.047419 -0.3643,2.620999 -0.6999,5.245719 -0.1547,1.233781 -0.2354,1.88323 -0.2421,1.94832 -0.0366,0.354041 -0.0714,0.8274 -0.102,1.182002 0.5969,-0.0042 0.6642,5.29e-4 1.3255,-0.04934 l 1.4241,-0.118279 c 1.353,-0.11235 2.0651,-0.171479 2.1363,-0.177419 z m 0.2084,-24.09802 c -0.001,-0.233151 0.0346,-3.036171 -0.1091,-4.661972 -0.0299,-0.396449 -0.064,-0.65769 -0.1022,-0.78377 -0.021,-0.06928 -0.0624,-0.156969 -0.0891,-0.224239 l -0.0516,-0.03462 -0.0564,0.0024 c -0.0373,0.0342 -0.0932,0.0741 -0.1243,0.114001 -0.036,0.0461 -0.0681,0.118391 -0.0928,0.17136 -0.0359,0.07696 -0.0756,0.183208 -0.1041,0.2632 -0.0528,0.14837 -0.1529,0.503079 -0.2654,1.01587 -0.2448,1.11579 -0.5137,2.810079 -0.9295,5.635429 -0.0376,0.255202 -0.0818,0.596339 -0.1228,0.851001 -0.0374,0.232428 -0.098,0.540509 -0.1373,0.77262 -0.0372,0.219991 -0.0851,0.51362 -0.1183,0.734251 -0.0576,0.383479 -0.1191,0.897038 -0.1788,1.280199 -0.0388,0.24886 -0.1016,0.578851 -0.1424,0.82739 -0.0464,0.265178 -0.0717,0.469968 -0.076,0.61432 -0.002,0.05724 0.0158,0.19993 0.0286,0.284879 l 0.0419,0.0615 c 0.117,0.05159 0.1339,0.06455 0.2759,0.06797 0.0494,0.0013 0.1152,-0.005 0.1645,-0.0072 0.2283,-0.01 0.3141,-0.01299 0.5712,-0.009 0.549,0.0058 0.838,0.0083 0.8669,0.0077 0.3123,-0.0066 0.3786,-0.02545 0.6162,-0.1031 0.004,-0.05686 0.0413,-0.682699 0.0466,-1.138438 0.002,-0.194022 -0.005,-0.452753 -0.002,-0.646782 0.002,-0.195699 0.0126,-0.456489 0.018,-0.65214 0.0369,-1.33255 0.0534,-2.221291 0.0725,-4.442979 z m -2.7007,10.288209 c -0.024,0.0068 -0.2621,0.04894 -0.4505,0.211421 -0.0438,0.03775 -0.1685,0.126219 -0.2311,0.308498 -0.0527,0.153461 -0.1734,0.723601 -0.0476,1.080691 0.0658,0.186571 0.1918,0.30289 0.3928,0.406461 0.1227,0.06322 0.331,0.145478 0.676,0.139208 0.0611,-0.0011 0.9185,-0.05537 1.2155,-0.126799 0.1381,-0.0404 0.2406,-0.07939 0.3076,-0.116951 0.0929,-0.0521 0.2508,-0.155009 0.3482,-0.402778 0.0321,-0.08162 0.1373,-0.484952 0.0714,-0.874072 -0.0206,-0.12558 -0.0531,-0.234429 -0.0975,-0.326538 -0.0489,-0.101413 -0.0817,-0.127731 -0.153,-0.197872 -0.0233,-0.01 -0.1167,-0.05479 -0.2414,-0.077 -0.199,-0.0354 -0.5539,-0.05255 -1.0085,-0.06489 -0.2348,-0.0064 -0.3956,-0.02291 -0.7819,0.04062 z m 85.91,77.247323 c 0.006,0.148 0.0201,0.34521 0.0217,0.49331 7.9e-4,0.0728 -0.004,0.16969 -0.005,0.24249 -0.002,0.2696 -0.004,0.4622 -0.005,0.5778 -0.004,0.4554 -0.0287,0.5164 0.1005,0.9053 0.0569,0.004 0.6257,0.0411 1.1384,0.0466 0.194,0.002 0.4527,-0.005 0.6467,-0.002 0.1957,0.002 0.4566,0.0126 0.6522,0.0181 0.4718,0.013 2.3595,0.0678 4.7195,0.0669 0.4331,-10e-5 3.0357,0.015 4.3305,-0.0948 0.4331,-0.0332 0.7183,-0.071 0.8558,-0.11371 0.0643,-0.02 0.145,-0.0605 0.2072,-0.0864 l 0.0345,-0.0515 -0.002,-0.0564 c -0.0342,-0.0373 -0.0742,-0.0932 -0.1141,-0.1243 -0.0461,-0.036 -0.1184,-0.068 -0.1714,-0.0926 -0.0769,-0.0359 -0.1832,-0.0757 -0.2632,-0.10429 -0.1484,-0.0528 -0.5031,-0.1529 -1.0158,-0.2654 -1.1158,-0.24481 -2.8102,-0.5138 -5.6355,-0.92961 -0.2552,-0.0376 -0.5963,-0.0818 -0.8509,-0.12279 -0.2325,-0.0375 -0.5405,-0.098 -0.7726,-0.1374 -0.22,-0.0372 -0.5137,-0.085 -0.7344,-0.1181 -0.3834,-0.0577 -0.897,-0.1193 -1.2801,-0.1789 -0.2571,-0.04 -0.5978,-0.1046 -0.8545,-0.1466 -0.2337,-0.0435 -0.4294,-0.0674 -0.5872,-0.0719 -0.0572,-0.002 -0.1716,0.0116 -0.2849,0.0287 l -0.0615,0.0418 c -0.0168,0.0396 -0.046,0.0903 -0.0564,0.13209 -0.0103,0.042 -0.008,0.1007 -0.0116,0.14391 z m -7.326,0.16451 c 0.009,-0.38711 -0.0276,-0.7303 -0.1114,-1.02941 -0.0229,-0.0819 -0.0915,-0.30309 -0.226,-0.5198 -0.0726,-0.1171 -0.1803,-0.2526 -0.4468,-0.3224 -0.2639,-0.0692 -2.6962,-0.4135 -5.4014,-0.759 -0.6919,-0.0908 -1.3841,-0.1792 -2.0767,-0.2652 -1.0582,-0.1313 -1.1655,-0.1339 -2.1217,-0.2151 10e-4,0.199 -0.003,0.46441 0.004,0.66321 0.007,0.19899 0.0299,0.46369 0.0449,0.66219 0.0512,0.6172 0.0907,1.09191 0.1182,1.4242 0.0946,1.1393 0.1538,1.8514 0.1774,2.1362 0.2989,2.1e-4 5.3807,-0.008 5.9784,-0.0179 1.3543,-0.036 2.2004,-0.0643 2.5384,-0.0848 0.2643,-0.0161 0.6156,-0.0521 0.8794,-0.0744 0.2404,-0.1321 0.3224,-0.1973 0.4539,-0.514 0.1266,-0.3048 0.1643,-0.5893 0.1891,-1.0838 z m -51.0502,77.92899 c 3.5892,-1.09639 9.8649,-3.4021 17.0475,-7.84199 0.6835,-0.4224 3.7542,-2.34741 6.6274,-4.5421 2.5247,-1.92841 4.8581,-4.1023 6.8104,-6.00061 1.8069,-1.75719 4.1534,-4.1734 5.7681,-6.1088 0.772,-0.92539 2.543,-3.12199 4.7682,-6.4668 2.8982,-4.3565 5.9891,-9.71179 8.146,-15.42279 0.3896,-1.03151 1.8849,-5.1958 3.2357,-10.5411 0.5812,-2.2141 1.0296,-4.45091 1.345,-6.71021 0.1669,-1.1949 0.3982,-3.37349 0.2882,-4.81699 -0.0201,-0.2632 -0.0198,-0.47161 -0.1656,-0.7356 -0.0343,-0.0618 -0.094,-0.13051 -0.2017,-0.19821 -0.0624,-0.0391 -0.1881,-0.0951 -0.3536,-0.103 -0.0263,-0.001 -0.3531,-0.004 -0.5216,0.0707 -0.0167,0.007 -0.1732,0.084 -0.2844,0.2286 -0.1346,0.17519 -0.1535,0.3463 -0.1833,0.71329 -0.0379,0.96841 -0.0692,1.6136 -0.0942,1.93561 l -0.1577,1.62479 c -0.0316,0.33401 -0.0666,0.7801 -0.0998,1.11401 -0.1581,1.59009 -0.5444,3.47809 -1.2143,6.2753 -0.5988,2.5 -1.3761,5.49889 -2.9447,9.8522 -0.492,1.3654 -1.2309,3.43019 -2.897,6.6535 -0.4347,0.84079 -1.4587,2.79939 -3.0433,5.52769 -0.1424,0.2451 -1.4128,2.4626 -3.0218,4.7957 -0.2335,0.3385 -2.3199,3.4147 -5.0414,6.49681 -0.7113,0.80549 -0.9624,1.06259 -1.6427,1.733 -0.3405,0.3356 -0.8004,0.7771 -1.1459,1.10759 -1.5659,1.49791 -3.0053,2.84251 -4.318,4.03381 -0.2677,0.2429 -3.1981,2.94669 -5.53,4.6571 -0.9753,0.7155 -3.3274,2.28669 -6.8056,4.3267 -1.7015,0.998 -4.1074,2.37 -6.9731,3.6929 -0.317,0.1464 -0.7422,0.336 -1.0627,0.47449 -0.3322,0.14351 -0.7775,0.3292 -1.1128,0.46521 -0.8565,0.3419 -1.6396,0.64059 -2.3494,0.8959 -0.5555,0.1998 -2.2304,0.77739 -3.737,1.23359 -0.9728,0.2946 -4.8851,1.44171 -9.8742,2.4076 -0.9164,0.1774 -1.8326,0.36371 -3.6819,0.6195 -1.1058,0.15291 -2.4977,0.2676 -2.7743,0.30451 -0.2153,0.0288 -0.4139,0.002 -0.6807,0.2463 -0.0115,0.0105 -0.1246,0.13149 -0.1595,0.267 -0.0385,0.27969 -0.0506,0.4656 -0.036,0.55759 0.0124,0.0785 0.086,0.31771 0.2197,0.4821 0.1023,0.12571 0.2415,0.16541 0.3121,0.17941 0.0269,0.005 0.1504,0.0111 0.2736,0.0127 0.1275,0.002 0.2559,0.003 0.5091,-0.0267 0.191,-0.0222 3.4193,-0.5345 3.7984,-0.5984 1.9633,-0.33091 7.8812,-1.3208 12.9588,-2.87191 z m 54.8665,-78.1436 c -0.002,-0.0336 0.0119,-0.3825 -0.0921,-0.66709 -0.0979,-0.26791 -0.3005,-0.41721 -0.3414,-0.45701 -0.1309,-0.0579 -0.1827,-0.0784 -0.3407,-0.1099 -0.2162,-0.0355 -0.3831,-0.0524 -0.5004,-0.0507 -0.0285,5.3e-4 -0.3476,-0.009 -0.5497,0.1485 -0.0798,0.0623 -0.1932,0.1827 -0.2846,0.41891 -0.1139,0.2944 -0.0835,0.63159 -0.0476,1.05089 0.0528,0.6164 0.0759,1.2029 0.6633,1.397 0.1563,0.0517 0.5782,0.0904 0.8217,0.0491 0.0182,-0.003 0.2038,-0.0351 0.3514,-0.1105 0.0892,-0.0456 0.1271,-0.0916 0.173,-0.1401 0.084,-0.2008 0.0951,-0.3005 0.1185,-0.61071 0.0168,-0.48979 0.0263,-0.7959 0.0286,-0.9184 z m -89.4161,134.78691 v -6.78011 h 3.7263 c -0.002,0.64251 -0.003,0.98071 -0.001,1.01441 0.0103,0.2235 0.0372,0.6115 0.3831,1.0511 0.3075,0.3908 0.697,0.6277 1.1478,0.8377 0.1126,0.0525 0.6299,0.27469 1.1711,0.4151 0.7553,0.1959 1.5342,0.3132 2.5719,0.3883 0.5202,0.035 1.0407,0.0525 1.5614,0.0527 0.3802,0 1.5481,-0.0267 2.5113,-0.34301 0.4863,-0.15979 1.2252,-0.45109 1.3574,-1.03349 0.0471,-0.20771 0.0482,-0.6592 -0.3586,-1.0027 -0.1575,-0.133 -0.4358,-0.3079 -0.9362,-0.4318 -0.302,-0.0748 -0.5773,-0.0856 -0.7708,-0.105 -2.4817,-0.2578 -3.9407,-0.4153 -4.3773,-0.4724 -0.6059,-0.0719 -1.2047,-0.1785 -1.7961,-0.3198 -0.6715,-0.1481 -1.3231,-0.3513 -1.9548,-0.6096 -0.5667,-0.2317 -1.2162,-0.5519 -1.7953,-0.9697 -0.4627,-0.33381 -1.1128,-0.8851 -1.5207,-1.7017 -0.2445,-0.48931 -0.578,-1.3578 -0.3711,-2.7096 0.1185,-0.7745 0.3852,-1.4425 0.8571,-2.06791 1.4078,-1.86629 3.8297,-2.8052 7.2655,-2.81679 1.1132,-0.0355 2.2482,0.0221 3.6959,0.35349 0.9417,0.22071 1.7103,0.4509 2.3057,0.69061 0.7603,0.3061 0.8981,0.4097 1.453,0.7591 v -1.3205 h 3.7263 v 6.5096 h -3.7265 c 0.002,-0.67271 -7.9e-4,-1.0462 -0.008,-1.1205 -0.007,-0.0717 -0.0582,-0.3788 -0.2766,-0.6652 -0.2614,-0.34261 -0.828,-0.7611 -1.8479,-1.1081 -1.30209,-0.44301 -2.6633,-0.6401 -4.0836,-0.5912 -0.1118,10e-4 -1.3471,-0.009 -2.2323,0.1176 -0.8359,0.1194 -1.37529,0.3939 -1.5754,1.0195 -0.0935,0.2934 -0.1049,0.5266 -0.0343,0.6994 0.0414,0.1013 0.1518,0.2258 0.3001,0.31879 0.3099,0.19401 0.9006,0.3175 1.4044,0.40731 0.4239,0.0756 1.42261,0.19059 2.8472,0.36499 1.6217,0.19311 2.6339,0.32251 3.0367,0.3883 0.741,0.12001 1.4049,0.26661 1.9919,0.43951 0.5927,0.1746 1.8373,0.56379 2.7624,1.383 0.1567,0.1389 0.8274,0.7314 1.2167,1.7026 0.1818,0.45339 0.3608,1.0334 0.4049,1.91149 0.0373,0.47401 0.006,0.93851 -0.093,1.39321 -0.0696,0.3184 -0.26951,1.1283 -1.00891,1.9245 -0.7717,0.8312 -1.8474,1.3689 -2.7651,1.6899 -1.0441,0.3653 -2.36889,0.6592 -4.3568,0.7731 -0.4509,0.0258 -2.5012,0.15849 -4.5143,-0.1189 -1.8409,-0.25361 -2.7322,-0.6358 -3.5668,-1.0441 v 0.7268 z m 121.7486,-131.82871 -0.017,0.0639 -7.9e-4,-0.0168 z m 8.38071,0.6255 v 3.6734 h 8.9694 v -3.159 c 0.55888,0 3.53989,0 3.72618,0 v 6.50951 c -1.05489,0 -20.04309,0 -21.09799,0 v -3.3504 h 2.8096 v -10.26221 h -2.8096 v -3.10639 c 11.25229,0 18.285,0 21.09799,0 v 6.48319 h -3.72618 v -3.3768 h -8.9694 v 3.48241 h 6.15799 v 3.10629 z m -264.894101,-6.5624 h -2.13375 v -3.10639 h 10.02226 v 3.10639 h -1.32368 l 4.26826,7.83221 3.45772,-6.1321 -0.99944,-1.70011 h -2.13416 v -3.10639 h 11.64298 v 3.10639 h -2.91742 l 3.89004,7.75111 3.889919,-7.75111 h -1.917959 v -3.10639 h 10.346319 v 3.10639 H 47.22294 l -7.620981,13.6126 h -3.54019 l -4.94552,-8.33259 -4.47893,8.33259 h -3.53825 z" />
</svg>
